<svg viewBox="0 0 24 24" focusable="false"><g clipPath="url(#clip0_3014_12628)"><path d="M23.55 4.91a1.64 1.64 0 01-.39 2.56c-1.13.65-2.6 1.46-4.2 2.36L16.86 11l-1.49 8.02c-.04.22-.14.42-.3.56l-1.62 1.47a.96.96 0 01-1.04.2.92.92 0 01-.57-.78l-.63-6.36c-6.7 3.65-6.96 3.75-7.37 3.26L.47 14.72a1.25 1.25 0 01.83-2.23l3.28.14 11.7-8.53a3.04 3.04 0 012.46-.53l3.96.87c.32.07.62.23.85.47zm-1.18 1.46l.13-.08a.28.28 0 00.13-.3.29.29 0 00-.23-.26l-3.95-.85a1.7 1.7 0 00-1.35.3L4.96 14l-3.42-.15 2.9 2.3c.55-.24 2.16-1.03 7-3.72l.9-.46.73 7.62 1-.9 1.57-8.55.27-.16c2.48-1.35 4.78-2.66 6.46-3.61z" /><path d="M6.59 9.71L4 8.98a.93.93 0 01-.24-1.7l1.91-1.11a.9.9 0 01.51-.12l5.65-.18-1.47 1.45H6l-1.1.54 2.99.84-1.3 1.01z" /></g><defs><clipPath id="clip0_3014_12628"><path d="M0 0h24v24H0z" /></clipPath></defs></svg>