<svg viewBox="0 0 24 24" focusable="false"><path clip-rule="evenodd" d="M8.73 4.65a.8.8 0 00-.6.27L2.4 11.47a.8.8 0 000 1.05l5.73 6.55a.8.8 0 00.6.27h10.63a2.44 2.44 0 002.44-2.44v-6.1a.8.8 0 00-1.6 0v6.1a.84.84 0 01-.84.84H9.1L4.06 12 9.1 6.25h10.27a.84.84 0 01.84.84v.11a.8.8 0 001.6 0v-.11a2.44 2.44 0 00-2.44-2.44H8.73zm3.84 4.33a.8.8 0 00-1.14 1.13l1.9 1.89-1.9 1.88a.8.8 0 001.14 1.14l1.88-1.9 1.9 1.9a.8.8 0 001.13-1.14L15.58 12l1.9-1.9a.8.8 0 00-1.14-1.12l-1.89 1.88-1.88-1.88z" fill-rule="evenodd" /></svg>