<svg viewBox="0 0 24 24" focusable="false"><path clip-rule="evenodd" d="M7.32 2A4.33 4.33 0 003 6.32v13.03c0 1 .36 1.89 1.15 2.35.78.46 1.74.35 2.62-.13l4.51-2.5v-.01c.1-.06.28-.1.5-.1.23 0 .4.04.5.1l4.51 2.5-3.12-3.44 3.12 3.45c.88.48 1.84.6 2.62.14.79-.46 1.15-1.36 1.15-2.36V6.32A4.34 4.34 0 0016.23 2H7.32zM4.5 7.98L3 6.32l1.5 1.66v11.37c0 .67.23.96.41 1.06.18.1.55.17 1.13-.16l4.51-2.5c.38-.21.83-.3 1.23-.3s.86.09 1.23.3l.66.37L4.5 7.98zm0 0l9.17 10.14 3.85 2.14c.59.32.96.26 1.13.16.18-.1.41-.4.41-1.07V6.32a2.84 2.84 0 00-2.83-2.82H7.32A2.83 2.83 0 004.5 6.32v1.66zm5 .58a.75.75 0 00-.52 1.41c1.8.67 3.78.67 5.6 0a.75.75 0 10-.52-1.4c-1.48.54-3.09.54-4.57 0z" fill-rule="evenodd" /></svg>