<svg viewBox="0 0 24 24" focusable="false"><g><path d="M9.55 3.84a.8.8 0 00-.67.35l-1.4 2.1H4.64A2.44 2.44 0 002.2 8.73v9a2.44 2.44 0 002.44 2.43h14.72a2.44 2.44 0 002.44-2.43v-.93a.8.8 0 00-1.6 0v.93a.84.84 0 01-.84.83H4.64a.84.84 0 01-.84-.83v-9a.84.84 0 01.84-.84H7.9a.8.8 0 00.66-.36l1.4-2.1h4.06l1.4 2.1c.14.23.4.36.66.36h3.27a.84.84 0 01.84.84v4.47a.8.8 0 101.6 0V8.73a2.44 2.44 0 00-2.44-2.44h-2.84l-1.4-2.1a.8.8 0 00-.67-.35h-4.9z" /><path d="M12 10.35a2.47 2.47 0 100 4.94 2.47 2.47 0 000-4.94zm-4.07 2.47a4.07 4.07 0 118.14 0 4.07 4.07 0 01-8.14 0z" /></g></svg>