<svg viewBox="0 0 24 24" focusable="false"><path clipRule="evenodd" d="M5.4 3.33a2.8 2.8 0 00-2.8 2.8v13.4a2.8 2.8 0 002.8 2.8h13.4a2.8 2.8 0 002.8-2.8v-1.35a.8.8 0 00-1.6 0v1.35c0 .67-.53 1.2-1.2 1.2H5.4a1.2 1.2 0 01-1.2-1.2V6.13c0-.66.54-1.2 1.2-1.2h13.4c.67 0 1.2.54 1.2 1.2v7.35a.8.8 0 101.6 0V6.13a2.8 2.8 0 00-2.8-2.8H5.4zm.84 3.97a.8.8 0 011.13 0l5 5a.8.8 0 010 1.13l-5 5a.8.8 0 01-1.13-1.13l4.43-4.43-4.43-4.44a.8.8 0 010-1.13zm4.53 9.77h6.67c.42 0 .77.35.77.8 0 .44-.35.8-.77.8h-6.67a.78.78 0 01-.76-.8c0-.45.34-.8.76-.8z" fill-rule="evenodd" /></svg>
