<svg viewBox="0 0 24 24" focusable="false"><path clip-rule="evenodd" d="M5 2.25A2.75 2.75 0 002.25 5v8A2.75 2.75 0 005 15.75h1.5a.75.75 0 000-1.5H5c-.69 0-1.25-.56-1.25-1.25V5c0-.69.56-1.25 1.25-1.25h8c.69 0 1.25.56 1.25 1.25v1.5a.75.75 0 001.5 0V5A2.75 2.75 0 0013 2.25H5zm6 6A2.75 2.75 0 008.25 11v8A2.75 2.75 0 0011 21.75h8A2.75 2.75 0 0021.75 19v-.5a.75.75 0 00-1.5 0v.5c0 .69-.56 1.25-1.25 1.25h-8c-.69 0-1.25-.56-1.25-1.25v-8c0-.69.56-1.25 1.25-1.25h8c.69 0 1.25.56 1.25 1.25v4a.75.75 0 001.5 0v-4A2.75 2.75 0 0019 8.25h-8z" fill-rule="evenodd" /></svg>