<svg viewBox="0 0 24 24" focusable="false"><path clip-rule="evenodd" d="M19.81 2.45c-.76 0-1.5.28-2.05.81v.01l-7.59 7.58c-.27.27-.44.62-.5 1l-.46 3.24a.75.75 0 00.83.85l3.16-.39c.4-.04.75-.22 1.03-.5l7.65-7.65.01-.01a2.92 2.92 0 00-2.08-4.94zm-8.58 9.46l7.58-7.57a1.42 1.42 0 012 2L13.17 14a.26.26 0 01-.15.08l-2.19.27.33-2.28c0-.06.03-.1.07-.15zm-5.4-4.77c.25-.25.58-.39.93-.39h4.12a.75.75 0 000-1.5H6.76a2.8 2.8 0 00-2.8 2.81V19.4a2.8 2.8 0 002.8 2.8H18.1a2.8 2.8 0 002.8-2.8V13.2a.75.75 0 00-1.5 0v6.18a1.3 1.3 0 01-1.3 1.3H6.76a1.3 1.3 0 01-1.3-1.3V8.06c0-.34.13-.68.38-.92z" fill-rule="evenodd" /></svg>