<svg viewBox="0 0 24 24" focusable="false"><path clipRule="evenodd" d="M7.83 3.6h.87v2.44a8.3 8.3 0 00-4.88 9.04A8.33 8.33 0 0012 22c1.17 0 2.32-.25 3.38-.72a.8.8 0 00-.65-1.47 6.68 6.68 0 01-9.41-5.66 6.62 6.62 0 007.09.2 5.02 5.02 0 016.13.79 6.73 6.73 0 01-.88 2.14.8.8 0 00.24 1.1.8.8 0 001.1-.24 8.34 8.34 0 00-3.7-12.1V3.6h.87a.8.8 0 000-1.6H7.83a.8.8 0 000 1.6zm2.47 2.98V3.6h3.4v2.98c0 .34.21.65.53.76a6.7 6.7 0 014.45 5.84 6.62 6.62 0 00-7.09-.2 5.02 5.02 0 01-6.13-.78 6.73 6.73 0 014.3-4.86.8.8 0 00.54-.76zm.87 4.16a1.25 1.25 0 11-2.5 0 1.25 1.25 0 012.5 0z" fill-rule="evenodd" /></svg>
