<svg viewBox="0 0 24 24" focusable="false"><path clipRule="evenodd" d="M3.5 12.48c0-.2.06-.4.18-.57.64-.9 1.73-2.27 3.18-3.4A8.4 8.4 0 0112 6.5c1.95 0 3.7.86 5.14 2a16.67 16.67 0 013.18 3.41.99.99 0 010 1.13c-.63.9-1.73 2.28-3.18 3.41a8.4 8.4 0 01-5.14 2 8.4 8.4 0 01-5.14-2 16.67 16.67 0 01-3.18-3.4.99.99 0 01-.18-.57zM12 5a9.88 9.88 0 00-6.07 2.32 18.17 18.17 0 00-3.48 3.73 2.49 2.49 0 000 2.85c.68.97 1.88 2.47 3.48 3.73A9.88 9.88 0 0012 19.96c2.4 0 4.47-1.07 6.07-2.33 1.6-1.26 2.8-2.76 3.48-3.72a2.49 2.49 0 000-2.86 18.17 18.17 0 00-3.48-3.73A9.88 9.88 0 0012 5zM9.4 12.48a2.61 2.61 0 115.22 0 2.61 2.61 0 01-5.22 0zM12 8.36a4.11 4.11 0 100 8.23 4.11 4.11 0 000-8.23z" fill-rule="evenodd" /></svg>
