<svg viewBox="0 0 24 24" focusable="false"><path clipRule="evenodd" d="M3.5 6.91A3.4 3.4 0 016.91 3.5h1.32a.75.75 0 000-1.5H6.9A4.9 4.9 0 002 6.91v1.32a.75.75 0 001.5 0V6.9zM13.25 8a.75.75 0 00-1.5 0v4.25H11a.75.75 0 000 1.5h1.5c.41 0 .75-.34.75-.75V8zM16 7.25c.41 0 .75.34.75.75v2a.75.75 0 01-1.5 0V8c0-.41.34-.75.75-.75zM9.75 8a.75.75 0 00-1.5 0v2a.75.75 0 001.5 0V8zm5.28-5.25c0-.41.33-.75.75-.75h1.3A4.9 4.9 0 0122 6.91v1.32a.75.75 0 01-1.5 0V6.9A3.4 3.4 0 0017.1 3.5h-1.31a.75.75 0 01-.75-.75zM22 16.7a.75.75 0 10-1.5 0v.39a3.4 3.4 0 01-3.41 3.41h-.39a.75.75 0 100 1.5h.39A4.9 4.9 0 0022 17.09v-.39zM2.75 15.03c.41 0 .75.33.75.75v1.3a3.4 3.4 0 003.41 3.42h1.32a.75.75 0 010 1.5H6.9A4.9 4.9 0 012 17.1v-1.31c0-.42.34-.75.75-.75zm5.75.41a.75.75 0 011.05.05l.01.01.08.07c.08.07.22.16.41.26.4.2 1.02.42 1.95.42.93 0 1.56-.22 1.95-.42a2.46 2.46 0 00.49-.33l.01-.01a.75.75 0 011.1 1.01L15 16l.56.5-.01.01-.02.02a1.96 1.96 0 01-.23.21c-.16.12-.38.28-.67.43a5.7 5.7 0 01-2.63.58 5.7 5.7 0 01-2.63-.58 3.95 3.95 0 01-.9-.64l-.02-.02L9 16l-.56.5a.75.75 0 01.06-1.06z" fill-rule="evenodd" /></svg>
