<svg viewBox="0 0 24 24" focusable="false"><path clip-rule="evenodd" d="M4.54 7.9c0-2.41 1.96-4.36 4.37-4.36h3.35v3.33c0 2.7 2.18 4.87 4.88 4.87h2.33A.77.77 0 0021 11.6v-1.05c0-.44-.16-.85-.44-1.18l-5.53-6.38A2.83 2.83 0 0012.89 2H8.9A5.9 5.9 0 003 7.9v8.2A5.9 5.9 0 008.91 22h5.32a.77.77 0 100-1.54H8.9a4.37 4.37 0 01-4.37-4.36V7.9zm14.71 2.3l-5.39-6.22a1.26 1.26 0 00-.06-.06v2.95c0 1.84 1.5 3.34 3.34 3.34h2.11zm-11.88.52c0-.43.35-.77.77-.77h2.06a.77.77 0 110 1.54H8.14a.77.77 0 01-.77-.77zm0 3.08c0-.43.35-.77.77-.77h5.15a.77.77 0 110 1.53H8.14a.77.77 0 01-.77-.76zm.77 2.3a.77.77 0 100 1.54h5.15a.77.77 0 100-1.54H8.14zm10.37-.09a.5.5 0 00-.48.51c0 .25.06.33.07.35.03.02.08.07.27.13l.29.1V16h-.15zm.15-1.27h-.15a1.8 1.8 0 00-1.83 1.78c0 .44.1.82.36 1.13.25.3.6.46.87.55l.75.25v1.53a.66.66 0 01-.64-.67c0-.35-.3-.64-.67-.64-.38 0-.68.29-.68.64 0 1.04.86 1.93 1.99 1.94v.11c0 .36.3.64.67.64.38 0 .68-.28.68-.64v-.1h.16A1.8 1.8 0 0022 19.46c0-.43-.1-.82-.37-1.13-.25-.3-.58-.45-.87-.55l-.75-.25v-1.53c.33 0 .64.28.64.67 0 .36.3.64.68.64.37 0 .67-.28.67-.64 0-1.04-.86-1.94-2-1.94v-.1c0-.36-.3-.64-.67-.64-.37 0-.67.28-.67.64v.1zM20 18.89v1.09h.16a.5.5 0 00.47-.5c0-.25-.05-.33-.07-.35-.03-.03-.08-.08-.26-.14l-.3-.1z" fill-rule="evenodd" /></svg>