<svg viewBox="0 0 24 24" focusable="false"><path clip-rule="evenodd" d="M13.34 18.38c.86.7 1.94 1.05 3.21 1.05.28 0 .56-.02.84-.05a.58.58 0 00.53-.64.6.6 0 00-.66-.52c-1.3.15-2.36-.1-3.16-.74-1.3-1.04-1.5-2.85-1.51-2.96a.6.6 0 10-1.19.09c.01.12.21 2.38 1.94 3.77zM12 2.63c3.3 0 5.06.95 5.55 1.28a.58.58 0 01-.23 1.12.6.6 0 01-.36-.12c-.12-.08-1.66-1.12-4.96-1.12-3.42 0-4.93 1.12-4.95 1.13a.6.6 0 01-.9-.25.59.59 0 01-.05-.22.58.58 0 01.28-.5c.4-.27 2.15-1.33 5.62-1.33zM4.17 9.8c.1.05.2.08.3.08A.59.59 0 005 9.6C5.63 8.52 7.62 6 12 6c4.5 0 6.4 2.74 7.03 3.64a.6.6 0 001 0 .58.58 0 00-.01-.65 9.52 9.52 0 00-2.37-2.47A9.54 9.54 0 0012 4.82c-5 0-7.3 2.94-8.04 4.2a.58.58 0 00.21.8zm10.2 11.55l.15.02a.6.6 0 00.58-.44.58.58 0 00-.43-.71c-2.9-.72-4.11-3.69-4.2-3.92-.11-.38-.18-.77-.2-1.17-.05-.56-.02-1.34.36-1.84.28-.36.73-.54 1.37-.54 1.16 0 1.36.57 1.66 1.75.3 1.15.7 2.73 2.97 2.84.86.05 1.65-.34 2.2-1.08.82-1.1.98-2.8.4-4.3a8.2 8.2 0 00-2.42-3.24A7.55 7.55 0 0012.01 7a7.46 7.46 0 00-7.17 5.14c-.75 2.36.16 5.78.2 5.93a.6.6 0 00.73.41.58.58 0 00.43-.7c-.01-.04-.87-3.25-.22-5.29A6.25 6.25 0 0112 8.17c3.54 0 5.55 2.76 6.11 4.22.44 1.13.34 2.42-.24 3.2-.22.3-.6.63-1.18.6-1.32-.07-1.55-.72-1.87-1.96-.15-.6-.3-1.22-.7-1.72-.47-.61-1.16-.91-2.11-.91-1.03 0-1.81.34-2.32 1-1.1 1.44-.41 3.89-.37 4.05l.01.03c.06.15 1.41 3.78 5.04 4.68zm-4.5-.25a.6.6 0 01-.44-.19 9.36 9.36 0 01-2.58-5.35v-.02c-.18-1.4.08-3.4 1.32-4.77A4.93 4.93 0 0112 9.25c1.92 0 3.43.89 4.36 2.57.69 1.22.82 2.44.82 2.5a.59.59 0 01-.53.63.6.6 0 01-.65-.52 6.01 6.01 0 00-.7-2.08 3.58 3.58 0 00-3.3-1.94c-1.27 0-2.26.38-2.94 1.14-.98 1.08-1.17 2.75-1.04 3.86.27 1.88 1 3.38 2.28 4.72a.57.57 0 01-.03.82.6.6 0 01-.4.16z" fill-rule="evenodd" /></svg>