<svg viewBox="0 0 24 24" focusable="false"><path clip-rule="evenodd" d="M8.5 13.9c0-.44.36-.8.8-.8h5.4a.8.8 0 110 1.6H9.3a.8.8 0 01-.8-.8z" fill-rule="evenodd" /><path clip-rule="evenodd" d="M4.1 5.1a1 1 0 01.7-.3h4.07l1.56 2.34c.15.23.4.36.67.36h8.1a1 1 0 011 1v4.7a.8.8 0 001.6 0V8.5a2.6 2.6 0 00-2.6-2.6h-7.67L9.97 3.56a.8.8 0 00-.67-.36H4.8a2.6 2.6 0 00-2.6 2.6v12.6A2.6 2.6 0 004.8 21h14.4a2.6 2.6 0 002.6-2.6v-1.6a.8.8 0 10-1.6 0v1.6a1 1 0 01-1 1H4.8a1 1 0 01-1-1V5.8a1 1 0 01.3-.7z" fill-rule="evenodd" /></svg>