<svg viewBox="0 0 24 24" focusable="false"><path clip-rule="evenodd" d="M8.11 5.3c-.85.05-1.7.11-2.55.2l-1.88.19a.75.75 0 00.14 1.49l1.89-.19c1.8-.18 3.62-.27 5.42-.27 3.07 0 6.14.16 9.2.46a.75.75 0 00.14-1.5 96.2 96.2 0 00-4.42-.33l-.2-1.18-.01-.05a2.73 2.73 0 00-.54-1.4c-.45-.53-1.14-.72-2.01-.72h-2.43c-.86 0-1.55.18-2 .7a2.71 2.71 0 00-.55 1.4v.06L8.1 5.3zm1.53-.06l1.5-.02c1.12 0 2.25.02 3.38.06l-.15-.86c-.08-.48-.13-.64-.2-.73-.04-.03-.2-.19-.88-.19h-2.43c-.7 0-.85.15-.88.18-.07.09-.12.23-.2.73l-.14.83zm9.52 4.16a.75.75 0 00-1.5-.1l-.6 9.32c-.02.37-.05.66-.1.92-.05.24-.11.4-.2.5-.14.19-.5.46-1.72.46H9.11c-1.22 0-1.58-.27-1.72-.45-.09-.11-.15-.27-.2-.51a7.5 7.5 0 01-.1-.92l-.6-9.31a.75.75 0 00-1.5.1l.6 9.3v.03c.03.35.05.73.13 1.1.07.37.2.77.48 1.12.57.75 1.54 1.04 2.9 1.04h5.94c1.37 0 2.34-.3 2.91-1.04.27-.35.4-.75.48-1.13.08-.36.1-.74.13-1.09v-.02l.6-9.32zM9.01 12.46c0-.41.34-.75.75-.75h4.63a.75.75 0 010 1.5H9.76a.75.75 0 01-.75-.75zM10.25 16c0-.41.34-.75.75-.75h3.08a.75.75 0 010 1.5H11a.75.75 0 01-.75-.75z" fill-rule="evenodd" /></svg>