<svg viewBox="0 0 24 24" focusable="false"><path d="M4.66 4.66c-.73.74-1.16 1.9-1.16 3.62v4.61c0 2.2.54 3.35 1.18 3.96.64.61 1.55.83 2.6.83h.46c.28 0 .54.08.74.18.2.1.44.26.6.5l1.39 1.83c.18.25.37.31.5.31.14 0 .33-.06.5-.3l1.4-1.85c.31-.42.8-.67 1.33-.67h.46c1.73 0 3.19-.44 4.19-1.22a4.29 4.29 0 001.6-3.57V8.3c0-1.74-.44-2.9-1.17-3.63S17.4 3.5 15.66 3.5H8.28c-1.73 0-2.88.43-3.62 1.16zM3.6 3.6C4.72 2.5 6.32 2 8.28 2h7.38c1.96 0 3.57.5 4.68 1.6 1.11 1.12 1.6 2.72 1.6 4.68v4.61c0 2.06-.8 3.67-2.16 4.74a8.21 8.21 0 01-5.12 1.55h-.46c-.05 0-.1.02-.14.07l-1.38 1.84c-.43.57-1.04.91-1.7.91-.68 0-1.29-.34-1.71-.9l-1.39-1.85a.37.37 0 00-.14-.07h-.46a5.1 5.1 0 01-3.64-1.25C2.6 16.93 2 15.31 2 12.9V8.3c0-1.97.5-3.57 1.6-4.69zM7.25 9c0-.41.34-.75.75-.75h7a.75.75 0 010 1.5H8A.75.75 0 017.25 9zM8 12.25a.75.75 0 000 1.5h5a.75.75 0 000-1.5H8z" /></svg>