<svg viewBox="0 0 24 24" focusable="false"><path clipRule="evenodd" d="M12.21 2C9.77 2 7.76 4 7.76 6.45v4.63a.75.75 0 001.5 0V6.45a2.95 2.95 0 115.9 0v.28c0 .08.02.15.04.22L4.22 17.94A.75.75 0 005.28 19l1.74-1.74a7.82 7.82 0 004.45 1.93v2.06a.75.75 0 001.5 0V19.2a7.83 7.83 0 007.07-7.8V9.84a.75.75 0 10-1.5 0v1.57a6.33 6.33 0 01-6.32 6.33h-.01a6.32 6.32 0 01-4.13-1.54l1.26-1.25a4.45 4.45 0 007.33-3.4v-.46a.75.75 0 00-1.5 0v.46a2.95 2.95 0 01-4.77 2.33l9.81-9.81A.75.75 0 0019.15 3l-2.57 2.57A4.45 4.45 0 0012.22 2zM5.9 9.83a.75.75 0 10-1.5 0v1.57c0 1.08.21 2.1.61 3.05a.75.75 0 101.38-.59 6.27 6.27 0 01-.5-2.46V9.83z" fill-rule="evenodd" /></svg>
