<svg viewBox="0 0 24 24" focusable="false"><path clipRule="evenodd" d="M6.77 2.76c.15-.19.33-.26.48-.26h9c.15 0 .33.07.48.26.16.2.27.48.27.8v9.94a.75.75 0 001.5 0V3.57c0-.64-.2-1.28-.61-1.76-.4-.5-1-.81-1.64-.81h-9c-.65 0-1.23.31-1.64.8-.4.5-.61 1.13-.61 1.77v16.36c0 .64.2 1.28.61 1.76.4.5 1 .81 1.64.81H9.5a.75.75 0 000-1.5H7.25c-.15 0-.33-.07-.48-.26-.16-.2-.27-.48-.27-.8V3.56c0-.33.1-.62.27-.81zm11.06 13.62a.62.62 0 100 1.25h1.25c.83 0 1.46.63 1.46 1.45s-.63 1.46-1.46 1.46h-1.25a.62.62 0 100 1.25h1.25c1.52 0 2.71-1.2 2.71-2.7 0-1.52-1.2-2.71-2.7-2.71h-1.26zm-3.75 1.25c-.82 0-1.46.63-1.46 1.45s.64 1.46 1.46 1.46h1.25a.62.62 0 110 1.25h-1.25c-1.5 0-2.7-1.2-2.7-2.7 0-1.52 1.2-2.71 2.7-2.71h1.25a.62.62 0 110 1.25h-1.25zm.84.83a.62.62 0 100 1.25h3.33a.62.62 0 100-1.25h-3.33z" fill-rule="evenodd" /></svg>
