<svg viewBox="0 0 24 24" focusable="false"><path clipRule="evenodd" d="M6.77 2.76c.15-.19.33-.26.48-.26h9c.15 0 .33.07.48.26.16.2.27.48.27.8v9.94a.75.75 0 001.5 0V3.57c0-.64-.2-1.28-.61-1.76-.4-.5-1-.81-1.64-.81h-9c-.65 0-1.23.31-1.64.8-.4.5-.61 1.13-.61 1.77v16.36c0 .64.2 1.28.61 1.76.4.5 1 .81 1.64.81h4.25a.75.75 0 000-1.5H7.25c-.15 0-.33-.07-.48-.26-.16-.2-.27-.48-.27-.8V3.56c0-.33.1-.62.27-.81zm10.8 13.1c.41 0 .75.34.75.75v2.07h2.07a.75.75 0 010 1.5h-2.07v2.06a.75.75 0 01-1.5 0v-2.06h-2.07a.75.75 0 010-1.5h2.07V16.6c0-.41.33-.75.75-.75z" fill-rule="evenodd" /></svg>
