<svg viewBox="0 0 24 24" focusable="false"><path d="M20.26 12a8.26 8.26 0 11-16.52 0 8.26 8.26 0 0116.52 0z" /><path clip-rule="evenodd" d="M12 21.3a9.3 9.3 0 100-18.6 9.3 9.3 0 000 18.6zm0 .7a10 10 0 100-20 10 10 0 000 20z" fill-rule="evenodd" /><path d="M8.09 8.94a.8.8 0 01.24-.6.85.85 0 01.62-.25h.19a.8.8 0 01.47.13c.12.08.23.18.31.3L12 11.88l2.1-3.35a.86.86 0 01.76-.43h.2a.8.8 0 01.6.25c.17.16.25.36.25.6v6.12c0 .24-.08.44-.25.61a.83.83 0 01-.6.24.84.84 0 01-.85-.85v-3.84l-1.52 2.29c-.09.13-.2.24-.31.32a.72.72 0 01-.4.11.77.77 0 01-.42-.11 1.26 1.26 0 01-.3-.32l-1.48-2.26v3.84a.8.8 0 01-.25.6.85.85 0 01-.6.22.85.85 0 01-.6-.23.82.82 0 01-.24-.6V8.95z" /></svg>