<svg viewBox="0 0 24 24" focusable="false"><path d="M8.75 3.5A4.25 4.25 0 004.5 7.75v8.5c0 2.34 1.9 4.25 4.25 4.25h6.44c2.35 0 4.25-1.9 4.25-4.25v-.55a.75.75 0 011.5 0v.55A5.75 5.75 0 0115.2 22H8.75A5.75 5.75 0 013 16.25v-8.5A5.75 5.75 0 018.75 2h4.19a2.68 2.68 0 01.13 0c.7.04 1.38.34 1.87.86l4.26 4.51a.75.75 0 01-.8 1.22.75.75 0 01-.26.05H15a2.75 2.75 0 01-2.75-2.75V3.5h-3.5zm5 2.39V3.8l.1.1 3.06 3.24H15c-.7 0-1.25-.56-1.25-1.25zm5.81 4.36a1.03 1.03 0 011.46 1.45l-6.08 6.08-1.94.49.48-1.95 6.08-6.07zm-11.9 2.57a.82.82 0 100 1.64h4.62a.82.82 0 100-1.64H7.65zm0 3.7a.82.82 0 000 1.64H9.5a.82.82 0 100-1.64H7.65z" /></svg>