<svg viewBox="0 0 24 24" focusable="false"><path clipRule="evenodd" d="M5.59 2.75c-.5 0-1.03.2-1.55.72l-.01.01c-.46.43-.77.9-.97 1.4-.2.51-.31 1.07-.31 1.66 0 .92.21 1.91.66 2.98a17.08 17.08 0 001.88 3.26c.8 1.1 1.7 2.17 2.71 3.18a28 28 0 003.2 2.72c1.1.8 2.2 1.43 3.28 1.9 1.08.46 2.07.67 2.97.67.6 0 1.16-.11 1.66-.32.36-.15.7-.36 1-.63a.75.75 0 111 1.13c-.44.38-.9.67-1.42.88-.7.3-1.45.44-2.24.44a9.08 9.08 0 01-3.55-.79c-1.21-.51-2.41-1.2-3.6-2.06a29.5 29.5 0 01-3.36-2.88 29.16 29.16 0 01-2.87-3.36 18.57 18.57 0 01-2.04-3.56 9.17 9.17 0 01-.78-3.56c0-.77.14-1.51.41-2.2.28-.72.73-1.37 1.33-1.94a3.67 3.67 0 012.6-1.15c.38 0 .77.08 1.13.25.37.17.7.43.96.8L10 5.58c.2.29.37.57.48.85a2.1 2.1 0 01-.11 1.99c-.17.3-.4.59-.67.86l-.7.71.03.07a8 8 0 00.82 1.1 29.33 29.33 0 002.95 2.97 7.15 7.15 0 001.2.84l.68-.68c.28-.28.57-.52.88-.68.33-.2.68-.31 1.08-.31.3 0 .6.06.9.19.28.11.55.27.83.46l3.32 2.36c.36.24.63.55.8.95l.01.01v.01c.13.32.22.67.22 1.06a.75.75 0 01-1.5 0c0-.16-.03-.31-.1-.49a.78.78 0 00-.29-.31l-3.3-2.35c-.23-.15-.4-.25-.56-.32a.85.85 0 00-.33-.07c-.1 0-.2.02-.32.1l-.02.01-.02.01c-.14.08-.32.21-.54.43l-.76.75a1.3 1.3 0 01-.94.39c-.15 0-.32-.02-.51-.09h-.02l-.02-.01a4.67 4.67 0 01-.16-.07l-.04-.02-.03-.02c-.4-.21-.88-.55-1.42-1-.55-.47-1.09-.98-1.64-1.51v-.01a35 35 0 01-1.49-1.62 9 9 0 01-1.02-1.41l-.03-.06-.02-.06-.02-.04a3.2 3.2 0 01-.05-.14l-.02-.04v-.04a1.66 1.66 0 01-.06-.41c0-.34.12-.66.37-.92l.76-.8h.01c.2-.2.35-.4.44-.55v-.02c.09-.12.11-.23.11-.32a.85.85 0 00-.08-.31v-.02a2.68 2.68 0 00-.32-.54L6.45 3.16a.88.88 0 00-.36-.3l-.01-.01c-.15-.07-.32-.11-.49-.11z" fill-rule="evenodd" /></svg>
