<svg viewBox="0 0 24 24" focusable="false"><path clip-rule="evenodd" d="M3.5 6.91A3.4 3.4 0 016.91 3.5h1.32a.75.75 0 000-1.5H6.9A4.9 4.9 0 002 6.91v1.32a.75.75 0 001.5 0V6.9zM15.78 2a.75.75 0 000 1.5h1.3a3.4 3.4 0 013.42 3.41v1.32a.75.75 0 001.5 0V6.9A4.9 4.9 0 0017.1 2h-1.31zm5.47 13.95c.41 0 .75.34.75.75v.39A4.9 4.9 0 0117.09 22h-.39a.75.75 0 110-1.5h.39a3.4 3.4 0 003.41-3.41v-.39c0-.41.34-.75.75-.75zM3.5 15.78a.75.75 0 00-1.5 0v1.3A4.9 4.9 0 006.91 22h1.32a.75.75 0 000-1.5H6.9A3.4 3.4 0 013.5 17.1v-1.31zm3.31-3.7a.34.34 0 000 .4c.4.57 1.1 1.42 2.01 2.12.91.7 1.99 1.22 3.18 1.22.9 0 1.72-.29 2.46-.73a.75.75 0 11.77 1.29c-.91.54-2 .94-3.23.94a6.73 6.73 0 01-4.1-1.53 11.93 11.93 0 01-2.3-2.43 1.84 1.84 0 010-2.14c.45-.63 1.24-1.61 2.3-2.43A6.73 6.73 0 0112 7.25c1.64 0 3.03.71 4.1 1.54 1.06.82 1.85 1.8 2.3 2.42a1.84 1.84 0 010 2.14c-.19.28-.44.6-.75.96a.75.75 0 11-1.13-.99c.27-.3.5-.6.67-.84a.34.34 0 000-.4c-.4-.56-1.1-1.4-2.01-2.1A5.25 5.25 0 0012 8.74c-1.19 0-2.27.52-3.18 1.22-.9.7-1.6 1.55-2 2.12zm4.23.2a.96.96 0 111.92 0 .96.96 0 01-1.92 0zM12 9.83a2.46 2.46 0 100 4.93 2.46 2.46 0 000-4.93z" fill-rule="evenodd" /></svg>