<svg viewBox="0 0 24 24" focusable="false"><path clip-rule="evenodd" d="M11.3 4.81c-.3.35-.25.88.1 1.17l2.52 2.1a.83.83 0 101.06-1.28l-.92-.76 1.4-.08h.02a4.09 4.09 0 014.38 3.34c.1.58.1 1.87.1 2.68v.09c0 .43.28.77.7.77.52 0 .85-.3.86-.83.03-.9.03-1.25 0-2.56a4.68 4.68 0 00-1.12-2.91 5.74 5.74 0 00-5.06-2.23l-1.55.1.87-1.06A.83.83 0 0013.4 2.3L11.3 4.8zm3.94 7.49a1 1 0 00-1-1h-8.1a1 1 0 00-1 1v7.1a1 1 0 001 1h8.1a1 1 0 001-1v-7.1zm-1-2.6a2.6 2.6 0 012.6 2.6v7.1a2.6 2.6 0 01-2.6 2.6h-8.1a2.6 2.6 0 01-2.6-2.6v-7.1a2.6 2.6 0 012.6-2.6h8.1z" fill-rule="evenodd" /></svg>