<svg viewBox="0 0 24 24" focusable="false"><path clipRule="evenodd" d="M13.78 5.65c.3.35.25.87-.1 1.16l-2.52 2.1a.83.83 0 11-1.06-1.27l.92-.76-1.4-.09H9.6a4.09 4.09 0 00-4.38 3.34c-.1.58-.1 1.87-.1 2.68v.1c0 .43-.28.76-.7.76-.52 0-.85-.3-.86-.83-.03-.9-.03-1.25 0-2.55a4.68 4.68 0 011.12-2.92 5.74 5.74 0 015.06-2.23l1.55.1-.87-1.05a.83.83 0 011.27-1.06l2.1 2.52zm-3.94 7.48a1 1 0 011-1h8.1a1 1 0 011 1v7.1a1 1 0 01-1 1h-8.1a1 1 0 01-1-1v-7.1zm1-2.6a2.6 2.6 0 00-2.6 2.6v7.1a2.6 2.6 0 002.6 2.6h8.1a2.6 2.6 0 002.6-2.6v-7.1a2.6 2.6 0 00-2.6-2.6h-8.1z" fill-rule="evenodd" /></svg>
