<svg viewBox="0 0 24 24" focusable="false"><path clipRule="evenodd" d="M5.09 5.09a.98.98 0 01.69-.29h.98v3.64c0 .45.35.8.8.8h7.1a.8.8 0 00.8-.8v-3.4l3.74 3.74v4.42a.8.8 0 001.6 0V8.44a.8.8 0 00-.23-.56l-4.45-4.45a.8.8 0 00-.56-.23H5.78A2.58 2.58 0 003.2 5.78v12.44a2.58 2.58 0 002.58 2.58h12.44a2.58 2.58 0 002.58-2.58V16.8a.8.8 0 10-1.6 0v1.42a.98.98 0 01-.98.98h-.98v-6.31a.8.8 0 00-.8-.8H7.56a.8.8 0 00-.8.8v6.31h-.98a.98.98 0 01-.98-.98V5.78c0-.26.1-.51.29-.7zm3.27 2.55V4.8h5.5v2.84h-5.5zm7.28 6.05v5.51H8.36v-5.51h7.28z" fill-rule="evenodd" /></svg>
