<svg viewBox="0 0 24 24" focusable="false"><g clip-rule="evenodd" fill-rule="evenodd"><path d="M12.28 2.25a.8.8 0 00-.56 0l-7.2 2.7A.8.8 0 004 5.7V12c0 3.06 2.03 5.51 3.87 7.13a20.32 20.32 0 003.74 2.57l.02.01h.01L12 21l-.36.72a.8.8 0 00.72 0L12 21l.36.72.03-.02.03-.02.03-.01a12.77 12.77 0 001.1-.64c.49-.3 1.09-.7 1.73-1.2.38-.3.39-.85.04-1.18a.83.83 0 00-1.08-.05A19.37 19.37 0 0112 20.1a17.53 17.53 0 01-3.07-2.18C7.17 16.4 5.6 14.34 5.6 12V6.25l6.4-2.4 6.4 2.4V12c0 1.54-.68 2.95-1.64 4.17a.85.85 0 00.06 1.14c.32.3.84.3 1.12-.06A8.43 8.43 0 0020 12V5.7a.8.8 0 00-.52-.75l-7.2-2.7z" /><path d="M15.57 9.43a.8.8 0 010 1.14l-4.13 4.12a.8.8 0 01-1.13 0l-1.88-1.87a.8.8 0 111.14-1.14l1.3 1.31 3.56-3.56a.8.8 0 011.14 0z" /></g></svg>