<svg viewBox="0 0 24 24" focusable="false"><path clip-rule="evenodd" d="M12 4.65a2.85 2.85 0 100 5.7 2.85 2.85 0 000-5.7zM7.5 7.5a4.5 4.5 0 119 0 4.5 4.5 0 01-9 0zm1 8.05a2.75 2.75 0 00-2.75 2.75v2a.75.75 0 01-1.5 0v-2c0-2.35 1.9-4.25 4.25-4.25h4.74a.75.75 0 110 1.5H8.5zm10 5.45a.73.73 0 01-.74-.74v-2.02h-2.02a.73.73 0 01-.74-.74c0-.41.32-.74.74-.74h2.02v-2.02c0-.42.33-.74.74-.74s.74.32.74.74v2.02h2.02c.42 0 .74.33.74.74s-.32.74-.74.74h-2.02v2.02c0 .42-.33.74-.74.74z" fill-rule="evenodd" /></svg>