<svg viewBox="0 0 24 24" focusable="false"><path clip-rule="evenodd" d="M4.94 4.05a1.48 1.48 0 000 2.95h14.33c.4 0 .73.33.73.73v5.1a.73.73 0 01-1.46 0V8.47H4.94c-.53 0-1.04-.14-1.48-.4v9.6a1.48 1.48 0 001.48 1.47h6.8a.73.73 0 110 1.46h-6.8A2.94 2.94 0 012 17.65V5.52A2.94 2.94 0 014.94 2.6h9.92c.4 0 .73.33.73.73v2.2a.73.73 0 11-1.46 0V4.05h-9.2zm4.3 9.04a1.05 1.05 0 100 2.1 1.05 1.05 0 000-2.1zM7 14.14a2.26 2.26 0 114.52 0 2.26 2.26 0 01-4.52 0zM17.5 22a.73.73 0 01-.74-.74v-2.02h-2.02a.73.73 0 01-.74-.74c0-.41.32-.74.74-.74h2.02v-2.02c0-.42.33-.74.74-.74s.74.32.74.74v2.02h2.02c.42 0 .74.33.74.74s-.32.74-.74.74h-2.02v2.02c0 .42-.33.74-.74.74z" fill-rule="evenodd" /></svg>