<svg viewBox="0 0 24 24" focusable="false"><path clipRule="evenodd" d="M4.94 4.05a1.48 1.48 0 000 2.95h14.33c.4 0 .73.33.73.73v5.1a.73.73 0 01-1.46 0V8.47H4.94c-.53 0-1.04-.14-1.48-.4v9.6a1.48 1.48 0 001.48 1.47h6.8a.73.73 0 010 1.46h-6.8A2.94 2.94 0 012 17.65V5.52A2.94 2.94 0 014.94 2.6h9.92c.4 0 .73.33.73.73v2.2a.73.73 0 11-1.46 0V4.05h-9.2zm4.3 9.04a1.05 1.05 0 100 2.1 1.05 1.05 0 000-2.1zM7 14.14a2.26 2.26 0 114.52 0 2.26 2.26 0 01-4.52 0zm13.48 1.58c.29.3.29.77 0 1.06l-1.66 1.66 1.66 1.66a.75.75 0 11-1.06 1.06l-1.66-1.66-1.66 1.66a.75.75 0 11-1.06-1.06l1.66-1.66-1.66-1.66a.75.75 0 011.06-1.06l1.66 1.66 1.66-1.66c.29-.3.76-.3 1.06 0z" fill-rule="evenodd" /></svg>
