<svg viewBox="0 0 24 24" focusable="false" xmlns="http://www.w3.org/2000/svg"><g clip-path="url(#clip0_3014_12998)"><path d="M18.64 3.56l4.2.9a1.03 1.03 0 01.29 1.92c-1.8 1.02-4.34 2.45-7 3.93l-1.59 8.86a.5.5 0 01-.17.3l-1.67 1.39a.37.37 0 01-.6-.25l-.74-7.67a124.06 124.06 0 01-7.73 4.04.37.37 0 01-.36-.06L.31 14.57a.83.83 0 01.55-1.48l3.05.13L16.59 4a2.52 2.52 0 012.05-.44zM7.83 9L3.99 7.9a.34.34 0 01-.08-.64l1.92-1.1c.05-.03.1-.05.16-.05l6.05-.17L7.83 9z" fill-rule="evenodd" /></g><defs><clipPath id="clip0_3014_12998"><path d="M0 0h24v24H0z" /></clipPath></defs></svg>