<svg viewBox="0 0 24 24" focusable="false" xmlns="http://www.w3.org/2000/svg"><path d="M22.95 12.7a.85.85 0 00-.84-.87h-1.75a10.32 10.32 0 00-1.41-4.17l1.25-1.31a.9.9 0 000-1.23.8.8 0 00-1.18 0L17.9 6.3a7.7 7.7 0 00-.96-.88 4.4 4.4 0 00-.53-1.19l.7-.73a.9.9 0 000-1.24.8.8 0 00-1.17 0l-.7.74a4 4 0 00-2.3-.74 4 4 0 00-2.28.74l-.7-.74a.8.8 0 00-1.18 0 .9.9 0 000 1.24l.7.73a4.4 4.4 0 00-.52 1.2c-.35.25-.67.55-.97.87L6.87 5.12a.8.8 0 00-1.18 0 .9.9 0 000 1.23l1.26 1.31a10.33 10.33 0 00-1.42 4.17H3.78a.85.85 0 00-.83.87c0 .48.37.87.83.87h1.68c.08 1.88.62 3.61 1.5 5.03L5.68 19.9a.9.9 0 000 1.23.8.8 0 001.18 0l1.12-1.17a7.2 7.2 0 003.05 2c.53.16 1.07-.27 1.07-.85V10.09c0-.48.38-.87.84-.87.46 0 .83.39.83.87v11.03c0 .58.54 1.01 1.07.84a7.2 7.2 0 003.05-1.99l1.12 1.17a.8.8 0 001.18 0 .9.9 0 000-1.23l-1.26-1.31a10.37 10.37 0 001.49-5.03h1.68c.46 0 .84-.4.84-.87z" /></svg>