<svg viewBox="0 0 24 24" focusable="false" xmlns="http://www.w3.org/2000/svg"><path clip-rule="evenodd" d="M8.24 2a.9.9 0 00-.65.27L2.27 7.59a.9.9 0 00-.27.65v7.52c0 .24.1.48.27.65l5.32 5.32c.17.17.4.27.65.27h7.52a.9.9 0 00.65-.27l5.32-5.32a.9.9 0 00.27-.65V8.24a.9.9 0 00-.27-.65l-5.32-5.32a.9.9 0 00-.65-.27H8.24zm7.3 6.47c.43.44.43 1.16 0 1.6L13.6 12l1.92 1.92a1.14 1.14 0 01-1.6 1.61L12 13.61l-1.92 1.92a1.14 1.14 0 11-1.61-1.6L10.39 12l-1.92-1.92a1.14 1.14 0 011.6-1.61L12 10.39l1.92-1.92a1.14 1.14 0 011.61 0z" fill-rule="evenodd" /></svg>