<svg viewBox="0 0 24 24" focusable="false" xmlns="http://www.w3.org/2000/svg"><path d="M12 22a10 10 0 100-20 10 10 0 000 20z" /><g clip-path="url(#clip0_52_3972)"><path clipRule="evenodd" d="M8.74 8.73a.63.63 0 01.88 0l2.39 2.39 2.38-2.39a.63.63 0 01.89.88L12.89 12l2.39 2.39a.63.63 0 01-.89.88l-2.38-2.39-2.39 2.39a.63.63 0 01-.88-.88L11.12 12 8.74 9.61a.63.63 0 010-.88z" fill-rule="evenodd" /></g><defs><clipPath id="clip0_52_3972"><path d="M0 0h12v12H0z" transform="translate(6 6)" /></clipPath></defs></svg>
