<svg viewBox="0 0 24 24" focusable="false" xmlns="http://www.w3.org/2000/svg"><g clipRule="evenodd" fill-rule="evenodd"><path d="M4.4 3.44A.82.82 0 103.24 4.6L5.7 7.06a17.23 17.23 0 00-3.6 4.54v.02h-.01l.74.38-.74-.37a.83.83 0 000 .74v.01l.01.02a5.8 5.8 0 00.16.3c.11.19.27.47.49.8.42.65 1.05 1.52 1.87 2.4 1.63 1.74 4.13 3.6 7.38 3.6 1.82 0 3.4-.58 4.74-1.4l2.86 2.86a.82.82 0 001.16-1.16L4.4 3.44zm9.18 11.5l-1.3-1.3a1.67 1.67 0 01-1.93-1.93l-1.29-1.29a3.33 3.33 0 004.52 4.52zm-11.5-2.57l.1-.04.65-.33-.74.37zM15.33 12v.2l3.88 3.88.17-.18a17.23 17.23 0 002.52-3.5v-.02h.01l-.74-.38.74.37a.83.83 0 000-.74v-.01l-.01-.02-.04-.06a10.1 10.1 0 00-.6-1.03 17.23 17.23 0 00-1.88-2.41C17.75 6.36 15.25 4.5 12 4.5c-1.32 0-2.52.3-3.58.79l3.38 3.38h.2c1.84 0 3.33 1.49 3.33 3.33zm5.84 0l.74-.37-.74.37z" /></g></svg>
