<svg viewBox="0 0 24 24" focusable="false" xmlns="http://www.w3.org/2000/svg"><path clip-rule="evenodd" d="M12.09 2H5.73A2.73 2.73 0 003 4.73v14.54A2.73 2.73 0 005.73 22h10.9a2.73 2.73 0 002.73-2.73V14.2l-3.16 3.16c-.24.24-.53.4-.85.48l-1.9.48a1.82 1.82 0 01-2.21-2.2l.47-1.92c.08-.32.25-.6.48-.84l4.08-4.08H13a.9.9 0 01-.91-.9V2zm1.82.53l4.57 4.57-.31.27-.08.08H13.9V2.53zM6.64 12a.9.9 0 100 1.82h2.72a.9.9 0 100-1.82H6.64zm-.91 4.55c0-.5.4-.91.9-.91h.92a.9.9 0 110 1.81h-.91a.9.9 0 01-.91-.9zm14.44-8.19c-.27 0-.53.11-.72.3l-5.97 5.97-.48 1.92 1.91-.48 5.97-5.98a1.02 1.02 0 00-.71-1.73z" fill-rule="evenodd" /></svg>