<svg viewBox="0 0 24 24" focusable="false" xmlns="http://www.w3.org/2000/svg"><path clip-rule="evenodd" d="M8.11 5.3l.2-1.14V4.1c.07-.38.16-.96.55-1.4.45-.51 1.14-.69 2-.69h2.43c.87 0 1.56.2 2 .71.4.45.49 1.03.55 1.4v.06l.2 1.18c1.49.08 2.96.19 4.43.34a.75.75 0 01-.14 1.49c-3.06-.3-6.13-.46-9.2-.46-1.8 0-3.61.09-5.42.27l-1.89.19a.75.75 0 01-.14-1.5l1.88-.18c.85-.09 1.7-.15 2.55-.2zm10.42 3.31c-5.02-1.1-11.5-.61-12.97.02-.35.08-.6.4-.57.77l.6 9.32v.02c.03.35.05.73.13 1.1.07.37.2.77.48 1.12.57.75 1.54 1.04 2.9 1.04h5.94c1.37 0 2.34-.3 2.91-1.04.27-.35.4-.75.48-1.13.08-.36.1-.74.13-1.09v-.02l.6-9.32a.75.75 0 00-.63-.79zm-9.3 3.1c-.4 0-.73.34-.73.75 0 .42.33.75.73.75h5.54c.4 0 .73-.33.73-.75a.74.74 0 00-.73-.75H9.23zM9 16c0-.41.37-.75.82-.75h4.36c.45 0 .82.34.82.75s-.37.75-.82.75H9.82c-.45 0-.82-.34-.82-.75z" fill-rule="evenodd" /></svg>