<svg viewBox="0 0 24 24" focusable="false" xmlns="http://www.w3.org/2000/svg"><path d="M18.4 15.22c.27.35.8.35 1.14.08.35-.26.43-.7.26-1.13-.26-.6-.52-1.39-.61-2.26-.17-.78-.17-1.65-.17-2.08 0-1.13-.26-2.18-.87-3.13a6.49 6.49 0 00-2.35-2.27c-.6-.34-1.3-.52-2-.6v-.96c0-.52-.35-.87-.87-.87s-.87.35-.87.87v.96c-.87.08-1.74.43-2.52.95a.73.73 0 00-.35.61c0 .26.1.52.26.7l8.96 9.13zm-6.95 6.35c.44.34.96.43 1.48.43s1.04-.17 1.48-.43a4.1 4.1 0 001.13-1.3h-5.22c.26.51.61.95 1.13 1.3zm6.44-4.53l3.35 3.36c.35.35.35.87 0 1.21a.84.84 0 01-1.22 0l-3.09-3.09H5.11c-.35 0-.7-.26-.96-.78-.09-.35 0-.78.35-.96h.09c.08 0 .17-.08.26-.17.17-.18.52-.52.78-1.04.6-1.05 1.22-2.79 1.22-5.74 0-.38.13-.76.22-1.02l.04-.11-4.35-4.35a.84.84 0 010-1.22.84.84 0 011.22 0l13.9 13.91z" /></svg>