<svg viewBox="0 0 24 24" focusable="false" xmlns="http://www.w3.org/2000/svg"><path clip-rule="evenodd" d="M11.68 2.06a.9.9 0 01.64 0l7.27 2.73a.9.9 0 01.6.85V12c0 3.13-2.08 5.64-3.95 7.28a20.62 20.62 0 01-3.8 2.61l-.02.01h-.01l-.05-.1.05.1a.91.91 0 01-.82 0l-.02-.01a8.72 8.72 0 01-.32-.17l-.87-.51c-.7-.45-1.66-1.1-2.61-1.93-1.88-1.64-3.95-4.15-3.95-7.28V5.64a.9.9 0 01.59-.85l7.27-2.73zm-1.62 6.9C10.06 7.89 10.93 7 12 7c1.07 0 1.94.88 1.94 1.97 0 1.09-.87 1.97-1.94 1.97a1.96 1.96 0 01-1.94-1.97zm-.99 3.34c.36-.37.86-.58 1.37-.58h3.12c.51 0 1 .21 1.37.58.37.37.57.87.57 1.4v.78a.4.4 0 01-.39.4H8.9a.4.4 0 01-.39-.4v-.79c0-.52.2-1.02.57-1.39z" fill-rule="evenodd" /></svg>