<svg viewBox="0 0 24 24" focusable="false" xmlns="http://www.w3.org/2000/svg"><path d="M11.89 2a4.97 4.97 0 00-4.94 5c0 2.76 2.21 5 4.94 5a4.97 4.97 0 004.94-5c0-2.76-2.21-5-4.94-5zM7.94 14a4.9 4.9 0 00-3.5 1.46A5.03 5.03 0 003 19v2a1 1 0 00.99 1h8.8a6.64 6.64 0 011-8H7.94zM18.4 15.62a2.72 2.72 0 012.52.73l.02.01.67.63h-.8a.55.55 0 100 1.1H23c.3 0 .55-.24.55-.55v-2.18a.55.55 0 10-1.1 0v.91l-.75-.7A3.82 3.82 0 0015.4 17a.55.55 0 001.03.36 2.72 2.72 0 011.97-1.74zM15 18.45c-.3 0-.55.25-.55.55v2.18a.55.55 0 001.1 0v-.9l.75.7a3.82 3.82 0 006.3-1.43.55.55 0 00-1.03-.37 2.72 2.72 0 01-4.5 1.02v-.02l-.68-.63h.8a.55.55 0 100-1.1H15z" /></svg>