<svg viewBox="0 0 24 24" focusable="false" xmlns="http://www.w3.org/2000/svg"><g clipPath="url(#clip0_52_4379)"><path d="M18.3 10.3H8.67V7.6c0-.72.45-1.72 1.08-2.44.54-.63 1.08-.9 1.98-.99a3.7 3.7 0 012.34.63 3.5 3.5 0 011.35 2.08c.09.63.72.99 1.35.9.63-.1.99-.72.9-1.36a6.3 6.3 0 00-2.34-3.33 6.05 6.05 0 00-3.87-1.08 4.53 4.53 0 00-3.42 1.71A5.18 5.18 0 006.42 7.6v2.7H5.7A2.65 2.65 0 003 13v6.3C3 20.83 4.17 22 5.7 22h12.6c1.53 0 2.7-1.17 2.7-2.7V13c0-1.53-1.17-2.7-2.7-2.7zm-8.1 4.5c0-1 .81-1.8 1.8-1.8s1.8.8 1.8 1.8c0 .63-.36 1.26-.9 1.53v2.07c0 .54-.36.9-.9.9s-.9-.36-.9-.9v-2.07c-.54-.27-.9-.9-.9-1.53z" /></g><defs><clipPath id="clip0_52_4379"><path d="M0 0h24v24H0z" /></clipPath></defs></svg>