<svg viewBox="0 0 24 24" focusable="false"><path d="M8.38 2c.4 0 .75.34.75.75v.64h5.9v-.64a.75.75 0 011.5 0v.67c1.4.13 2.53.62 3.32 1.48.92 1 1.3 2.36 1.3 3.86v7.87c0 1.5-.38 2.86-1.3 3.86-.93 1-2.31 1.51-4.07 1.51h-7.4c-1.77 0-3.15-.5-4.08-1.51A5.3 5.3 0 013 16.93V8.76c0-1.5.38-2.87 1.3-3.86a4.98 4.98 0 013.33-1.48v-.67c0-.41.33-.75.75-.75zM4.5 10.06v6.57c0 1.27.32 2.21.9 2.84.57.61 1.5 1.03 2.98 1.03h7.4c1.47 0 2.4-.42 2.97-1.03.58-.63.9-1.57.9-2.84v-6.57H4.5zm10 3.51a1 1 0 111 1 1 1 0 01-1-1zm1 1.78a1 1 0 000 2 1 1 0 100-2zm-4.43-1.78a1 1 0 011-1h.01a1 1 0 110 2 1 1 0 01-1-1zm1 1.78a1 1 0 000 2h.01a1 1 0 100-2zm-4.42-1.78a1 1 0 111 1 1 1 0 01-1-1zm1 1.78a1 1 0 000 2 1 1 0 100-2z" /></svg>