<svg viewBox="0 0 24 24" focusable="false"><path clipRule="evenodd" d="M2.2 2.2a.71.71 0 011.02 0l4.5 4.52h.1l.11-.18L11.4 10l-.28.11 4.66 4.66.1-.28 6 6-.23.15 1.14 1.14a.71.71 0 11-1 1.01l-1.84-1.84H4.49a2.22 2.22 0 01-2.22-2.22V8.94a2.22 2.22 0 012.22-2.22h1.22l-3.5-3.5a.71.71 0 010-1.01zm20.47 17.06c.04-.17.06-.35.06-.53V8.94a2.22 2.22 0 00-2.22-2.22h-3.32l-1.65-2.48a.44.44 0 00-.37-.2H9.83a.44.44 0 00-.37.2l-.72 1.09 4.6 4.6c1.3.31 2.3 1.33 2.62 2.62l6.7 6.7zM8.94 13.39c0-.95.38-1.82.99-2.46l5.03 5.03a3.55 3.55 0 01-6.02-2.57zm11.57-3.11a1.33 1.33 0 11-2.67 0 1.33 1.33 0 012.67 0z" fill-rule="evenodd" /></svg>
