<svg viewBox="0 0 24 24" focusable="false"><path d="M22.63 10.87c-.13-.23-1.5-.82-1.5-.82.24-.12.4-.15.4-.65 0-.55 0-.73-.36-.73h-1.25l-.01-.04c-.8-1.75-.91-2.2-2.11-2.8C16.2 5.05 13.18 5 12 5c-1.18 0-4.2.04-5.8.84-1.2.6-1.17.9-2.1 2.8 0 0-.02.01-.02.03H2.83c-.36 0-.37.18-.37.73 0 .5.17.53.4.65 0 0-1.31.63-1.5.82-.18.18-.36 1.46-.36 3.66s.18 4.4.18 4.4h.55c0 .64.1.74.37.74h3.67c.27 0 .36-.1.36-.74h11.74c0 .64.09.74.36.74H22c.19 0 .28-.14.28-.74h.55s.18-2.24.18-4.4c0-2.15-.23-3.43-.37-3.66zM6.01 12.93c-.84.09-1.68.13-2.52.14-.93 0-.96.06-1.03-.53a3.3 3.3 0 01.02-.8l.03-.14h.14c.55 0 1.07.02 2.04.31.5.15.96.38 1.38.7.2.14.25.27.25.27l-.31.05zm11.33 3.3l-.2.5H6.86s.01-.02-.23-.5c-.19-.37.04-.6.4-.73.7-.25 2.76-.97 4.96-.97s4.3.62 4.97.97c.26.13.57.22.37.73zM5.56 9.97H5.1c.12-.21.19-.45.3-.7.37-.77.8-1.66 1.54-2.03 1.08-.54 3.31-.78 5.05-.78 1.74 0 3.97.24 5.05.78.75.37 1.17 1.26 1.53 2.03.12.25.19.5.31.7H5.56zm15.93 2.57c-.1.57 0 .53-.98.53-.84 0-1.68-.05-2.52-.14-.13-.03-.17-.25-.06-.33a5.94 5.94 0 013.45-1 .15.15 0 01.14.14c.02.27.01.54-.03.8z" /></svg>