<svg viewBox="0 0 24 24" focusable="false"><path clipRule="evenodd" d="M21.17 12l.74-.37-.74.37zm.74-.37v-.01l-.01-.02a6.91 6.91 0 00-.16-.3c-.11-.19-.27-.47-.49-.8a17.22 17.22 0 00-1.87-2.4C17.75 6.36 15.25 4.5 12 4.5S6.25 6.36 4.62 8.1a17.23 17.23 0 00-2.52 3.5v.02h-.01l.74.38-.74-.37a.83.83 0 000 .74l.1-.04.64-.33-.74.37v.01l.01.02a5.8 5.8 0 00.16.3c.11.19.27.47.49.8.42.65 1.05 1.52 1.87 2.4 1.63 1.74 4.13 3.6 7.38 3.6s5.75-1.86 7.38-3.6a17.22 17.22 0 002.52-3.5v-.02h.01l-.74-.38.74.37a.83.83 0 000-.74zM10.33 12a1.67 1.67 0 113.34 0 1.67 1.67 0 01-3.34 0zM12 8.67a3.33 3.33 0 100 6.66 3.33 3.33 0 000-6.66z" fill-rule="evenodd" /></svg>
