<svg viewBox="0 0 24 24" focusable="false"><path d="M7.76 18.43H7.3c-2.3 0-4.55-.92-4.55-5.54V8.3c0-3.7 1.85-5.54 5.55-5.54h7.4c3.7 0 5.55 1.84 5.55 5.53v4.61c0 3.7-2.85 5.54-6.55 5.54h-.47a.94.94 0 00-.74.37l-1.38 1.84c-.61.81-1.61.81-2.22 0L8.5 18.8c-.15-.2-.49-.37-.74-.37z" /><path clip-rule="evenodd" d="M8.3 9.8a1.25 1.25 0 100 2.5 1.25 1.25 0 100-2.5zm2.44 1.25c0-.69.56-1.25 1.26-1.25a1.25 1.25 0 110 2.5c-.7 0-1.26-.56-1.26-1.25zm3.7 0c0-.69.56-1.25 1.26-1.25a1.25 1.25 0 110 2.5c-.7 0-1.26-.56-1.26-1.25z" fill-rule="evenodd" /></svg>