<svg viewBox="0 0 24 24" focusable="false"><path d="M12.5 2a.86.86 0 00-.85.87V3.8A5.9 5.9 0 008.3 5.52a6.16 6.16 0 00-1.74 4.3c0 2.92-.6 4.73-1.17 5.79a5.16 5.16 0 01-1 1.32h-.01c-.3.22-.44.61-.33.97.1.37.44.62.81.62h15.3c.37 0 .7-.25.81-.62a.88.88 0 00-.33-.96l-.05-.04a5.16 5.16 0 01-.96-1.3c-.56-1.05-1.17-2.86-1.17-5.77 0-1.62-.63-3.17-1.74-4.3a5.9 5.9 0 00-3.36-1.73V2.87A.86.86 0 0012.5 2zM13.97 21.53c.45-.3.82-.74 1.08-1.27h-5.1c.26.53.63.97 1.08 1.27.45.3.95.47 1.47.47a2.6 2.6 0 001.47-.47z" /></svg>