<svg viewBox="0 0 24 24" focusable="false"><path clipRule="evenodd" d="M12.52 4.34a7.5 7.5 0 00-10.4 5.52c-.22 1.15-.15 2.15.32 4.05a6.15 6.15 0 001.88 2.8 11.5 11.5 0 001.36 1.08l.03.02c.14.1.3.14.46.14h4.06V16.9h-.4a2 2 0 01-1.4-3.42l2.52-2.52a2 2 0 012.83 0l2.53 2.52a2 2 0 01-1.42 3.42h-.5v1.05h5c.18 0 .35-.05.49-.15A5 5 0 0017 8.7h-.43a7.5 7.5 0 00-4.05-4.36zm-6.8 13.48l.15-.24-.12.19-.03.05zm6.64 2.55a.83.83 0 01-.83-.83v-4.17h-1.7a.33.33 0 01-.23-.57l2.34-2.33a.6.6 0 01.85 0l2.34 2.33c.2.21.06.57-.24.57h-1.7v4.17c0 .46-.37.83-.83.83z" fill-rule="evenodd" /></svg>
