<svg viewBox="0 0 24 24" focusable="false"><path d="M5.5 8.25A4.31 4.31 0 019.88 4c2.41 0 4.37 1.9 4.37 4.25a4.31 4.31 0 01-4.37 4.25A4.31 4.31 0 015.5 8.25zM3.28 15.44a4.44 4.44 0 013.1-1.24h7c1.16 0 2.27.45 3.09 1.24.82.8 1.28 1.88 1.28 3.01v1.7c0 .47-.4.85-.88.85h-14a.86.86 0 01-.87-.85v-1.7c0-1.13.46-2.2 1.28-3zM14.97 12.27c.23.05.46.12.68.2a4.3 4.3 0 003.85-4.22 4.31 4.31 0 00-4.72-4.24 6.25 6.25 0 01.2 8.26zM19.94 20.15c0 .3-.05.58-.13.85h2.32c.48 0 .87-.38.87-.85v-1.7c0-1.13-.46-2.2-1.28-3a4.44 4.44 0 00-3.1-1.25h-.35a6.27 6.27 0 011.67 4.25v1.7z" /></svg>