<svg viewBox="0 0 24 24" focusable="false"><path d="M5.06 8.25A4.31 4.31 0 019.44 4c2.41 0 4.37 1.9 4.37 4.25a4.31 4.31 0 01-4.37 4.25 4.31 4.31 0 01-4.38-4.25zM3.28 15.44a4.44 4.44 0 013.1-1.24h6.12c1.16 0 2.27.45 3.1 1.24.81.8 1.28 1.88 1.28 3.01v1.7c0 .47-.4.85-.88.85H2.87a.86.86 0 01-.87-.85v-1.7c0-1.13.46-2.2 1.28-3zM19.5 8.25c.48 0 .88.38.88.85v1.7h1.75c.48 0 .87.38.87.85s-.4.85-.88.85h-1.75v1.7c0 .47-.39.85-.87.85a.86.86 0 01-.88-.85v-1.7h-1.75a.86.86 0 01-.87-.85c0-.47.4-.85.88-.85h1.75V9.1c0-.47.39-.85.87-.85z" /></svg>