<svg viewBox="0 0 24 24" focusable="false"><path clip-rule="evenodd" d="M20.4 2.87a.87.87 0 00-1.74 0V4.6h-1.73a.87.87 0 000 1.74h1.73v1.73a.87.87 0 001.74 0V6.34h1.73a.87.87 0 100-1.74H20.4V2.87zM5.65 8.07a4.34 4.34 0 118.68 0 4.34 4.34 0 01-8.68 0zm-2.2 7.34a4.34 4.34 0 013.07-1.27h6.94a4.34 4.34 0 014.34 4.34v1.74c0 .48-.4.86-.87.86H3.05a.87.87 0 01-.87-.86v-1.74c0-1.15.46-2.25 1.27-3.07zm16.39 5.67c.08-.27.12-.56.12-.86v-1.74c0-1.6-.59-3.15-1.65-4.34h.35A4.34 4.34 0 0123 18.48v1.74c0 .48-.39.86-.87.86h-2.3z" fill-rule="evenodd" /></svg>