<svg viewBox="0 0 24 24" focusable="false"><path d="M5.06 8.25A4.31 4.31 0 019.44 4c2.41 0 4.37 1.9 4.37 4.25a4.31 4.31 0 01-4.37 4.25 4.31 4.31 0 01-4.38-4.25zM3.28 15.44a4.44 4.44 0 013.1-1.24h6.12c1.16 0 2.27.45 3.1 1.24.81.8 1.28 1.88 1.28 3.01v1.7c0 .47-.4.85-.88.85H2.87a.86.86 0 01-.87-.85v-1.7c0-1.13.46-2.2 1.28-3zM17.13 8.5a.9.9 0 011.24 0l1.57 1.52L21.5 8.5a.9.9 0 011.23 0c.35.33.35.87 0 1.2l-1.57 1.53 1.57 1.52c.35.33.35.87 0 1.2a.9.9 0 01-1.23 0l-1.57-1.52-1.57 1.52a.9.9 0 01-1.24 0 .83.83 0 010-1.2l1.57-1.53-1.57-1.52a.83.83 0 010-1.2z" /></svg>