<svg viewBox="0 0 24 24" focusable="false" xmlns="http://www.w3.org/2000/svg"><path clip-rule="evenodd" d="M7.25 2.24a.8.8 0 011.14 0l1.3 1.3a4.12 4.12 0 014.62 0l1.3-1.3a.8.8 0 111.14 1.13l-1.3 1.3c.24.36.43.76.55 1.18.36.25.7.54 1 .85l1.12-1.12a.8.8 0 111.14 1.13L18 7.97a9.49 9.49 0 011.42 4.06h1.78a.8.8 0 010 1.6h-1.72a9.7 9.7 0 01-1.5 4.88l1.28 1.28a.8.8 0 11-1.14 1.14l-1.15-1.15A6.85 6.85 0 0112.01 22H12a6.85 6.85 0 01-4.96-2.22l-1.15 1.15a.8.8 0 11-1.14-1.14l1.29-1.28a9.7 9.7 0 01-1.51-4.87H2.8a.8.8 0 010-1.6h1.78c.18-1.5.7-2.9 1.44-4.05L4.74 6.71a.8.8 0 011.14-1.13l1.14 1.14c.3-.32.63-.6.97-.86.13-.43.32-.83.57-1.19l-1.3-1.3a.8.8 0 010-1.13zm1.3 5.23a6.92 6.92 0 002.64 1.08v5.6a.8.8 0 001.61 0v-5.6a6.92 6.92 0 002.66-1.1c.26.23.5.48.73.75a.8.8 0 00.27.35 8.01 8.01 0 011.43 4.7c0 3.7-2.32 6.6-5.09 7.08v-2.04a.8.8 0 10-1.6 0v2.04c-2.77-.48-5.09-3.39-5.09-7.08a8.01 8.01 0 011.64-4.93c.25-.31.52-.6.8-.85zm3.46-.45c.65 0 1.35-.26 1.93-.55.19-.09.35-.18.5-.27A2.6 2.6 0 0012 4.44 2.6 2.6 0 009.57 6.2c.14.09.3.18.49.27a4.58 4.58 0 001.95.55z" fill-rule="evenodd" /></svg>