<svg viewBox="0 0 24 24" focusable="false" xmlns="http://www.w3.org/2000/svg"><path clip-rule="evenodd" d="M3.5 5.4c0-.76.2-1.18.47-1.44.29-.26.79-.46 1.64-.46h5.73c.85 0 1.35.2 1.64.46.27.26.47.68.47 1.43v12.34c0 .75-.2 1.17-.47 1.43-.28.25-.75.45-1.55.46v-2.77c0-1.05-1-1.64-1.85-1.64h-2.2c-.86 0-1.86.59-1.86 1.64v2.77c-.8-.01-1.27-.2-1.55-.46-.27-.26-.47-.68-.47-1.43V5.39zm3.52 14.22h2.9v-2.77s0-.02-.03-.04a.5.5 0 00-.31-.1h-2.2a.5.5 0 00-.31.1.16.16 0 00-.05.04v2.77zm-.75 1.5h-.66a3.8 3.8 0 01-2.65-.86A3.3 3.3 0 012 17.73V5.39c0-1.01.28-1.9.96-2.53A3.8 3.8 0 015.6 2h5.73a3.8 3.8 0 012.66.86c.68.63.95 1.52.95 2.53v1.9h3.66c1 0 1.88.25 2.51.88.63.63.88 1.51.88 2.5V17.74c0 1-.25 1.88-.88 2.5-.63.64-1.52.89-2.51.89H6.28zm.75-14.85a.75.75 0 00-1.5 0v.89a.75.75 0 101.5 0v-.89zm13.04 12.9c.25-.24.44-.68.44-1.44V10.68c0-.77-.19-1.2-.44-1.45s-.69-.44-1.45-.44h-3.66v8.94c0 .7-.12 1.35-.42 1.89h4.08c.76 0 1.2-.2 1.45-.44zM6.27 9.94c.42 0 .75.33.75.75v.88a.75.75 0 01-1.5 0v-.88c0-.42.34-.75.75-.75zm5.16-3.66a.75.75 0 00-1.5 0v.89a.75.75 0 001.5 0v-.89zm-.75 3.66c.41 0 .75.33.75.75v.88a.75.75 0 01-1.5 0v-.88c0-.42.33-.75.75-.75zm6.3 2.51a.75.75 0 011.5 0v3.53a.75.75 0 11-1.5 0v-3.53z" fill-rule="evenodd" /></svg>