<svg viewBox="0 0 24 24" focusable="false" xmlns="http://www.w3.org/2000/svg"><path d="M2.43 2.43a.8.8 0 011.14 0l7.12 7.13.02.02 4.53 4.53.02.02 6.3 6.3a.8.8 0 11-1.13 1.14l-1.4-1.4H4.63a2.44 2.44 0 01-2.43-2.44v-9a2.44 2.44 0 012.44-2.44h.52L2.43 3.57a.8.8 0 010-1.14zM6.76 7.9H4.64a.84.84 0 00-.84.84v9a.84.84 0 00.84.83h12.8l-2.72-2.7a4.07 4.07 0 01-5.75-5.76L6.76 7.9zm3.34 3.34a2.47 2.47 0 003.49 3.49l-3.49-3.49zm-1.35-6.6c0-.44.35-.8.8-.8h4.9a.8.8 0 01.67.36l1.4 2.1h2.84a2.44 2.44 0 012.44 2.44v7.64a.8.8 0 11-1.6 0V8.73a.84.84 0 00-.84-.84H16.1a.8.8 0 01-.66-.36l-1.4-2.1H9.55a.8.8 0 01-.8-.8z" /></svg>