<svg viewBox="0 0 24 24" focusable="false" xmlns="http://www.w3.org/2000/svg"><path d="M9.18 5.18a22.79 22.79 0 015.65 0c1 .14 2.08.36 2.87.75A4.3 4.3 0 0119.5 7.8l.43.86h.84a.78.78 0 01.44 1.42l.13.07.43.24c.18.1.43.28.61.51.13.17.2.37.25.51a13.77 13.77 0 01.3 1.86c.08.95.11 2.05.03 2.81a14.68 14.68 0 01-.43 2.3v.04h-.01v.01l-.6-.2.6.2a.78.78 0 01-.6.53.78.78 0 01-.78.74h-2.56a.78.78 0 01-.78-.73 3.68 3.68 0 01-.86-.14l-.06-.02a7.22 7.22 0 00-1.22-.2 42.08 42.08 0 00-3.65-.19c-.8 0-2.19.05-3.6.18-.6.06-.95.14-1.22.2l-.06.03a3.6 3.6 0 01-.91.14.78.78 0 01-.78.73H2.87a.78.78 0 01-.77-.74.78.78 0 01-.6-.53l.6-.2-.6.2h-.01v-.01l-.01-.04a5.8 5.8 0 01-.16-.6c-.09-.4-.2-.98-.27-1.7a16.31 16.31 0 01.33-4.67c.05-.14.12-.34.25-.5.18-.24.43-.41.61-.52a11.24 11.24 0 01.56-.31.78.78 0 01.44-1.43h.84l.43-.85c.37-.66.9-1.43 1.79-1.87a9.6 9.6 0 012.88-.75zm-4.93 5.83l.19-.03c.27-.05.7-.12 1.33-.18 1.25-.14 3.25-.27 6.23-.27 2.98 0 4.98.13 6.23.27a20.2 20.2 0 011.52.21 6.17 6.17 0 00.88.53l.32.18.16.11.02.05.09.36c.06.31.1.72.15 1.17.08.9.1 1.9.03 2.51-.06.64-.16 1.14-.23 1.5h-3.28c-.2 0-.32-.04-.6-.11l-.04-.01a8.77 8.77 0 00-1.45-.25 43.65 43.65 0 00-3.8-.19c-.84 0-2.28.05-3.75.2-.71.06-1.13.16-1.46.24h-.03c-.28.08-.4.11-.6.11H2.83a13.2 13.2 0 01-.23-1.49 14.86 14.86 0 01.29-4.09l.16-.1.32-.2.24-.12c.18-.1.41-.23.64-.4zm14.23-1.75l-.08-.01a61.15 61.15 0 00-6.4-.28 61.15 61.15 0 00-6.48.29l.35-.7c.32-.57.66-1 1.12-1.23a8.17 8.17 0 012.39-.6 21.23 21.23 0 015.24 0c.97.12 1.84.32 2.39.6.46.22.8.66 1.12 1.22l.35.7zm-1.53 5.52c-.27-.32-1.15-.58-2.31-.75a15.16 15.16 0 00-4.98-.04l-.28.04c-1.11.14-1.95.4-2.31.75-.54.52.25 1.1.87 1.18.46.05 1.27.04 2.64.04a451.03 451.03 0 012.87 0c1.37 0 2.18 0 2.64-.04.62-.08 1.35-.63.86-1.18zm3.06-3.02a.15.15 0 00-.14-.14 5.91 5.91 0 00-3.43 1c-.1.08-.07.3.07.32.8.1 1.6.14 2.4.14.49 0 .99-.14 1.08-.57.05-.25.06-.5.02-.75zM4 11.76a.15.15 0 01.14-.14 5.91 5.91 0 013.43 1c.1.08.07.3-.06.32-.8.1-1.6.14-2.41.14-.49 0-.99-.14-1.08-.57a2.4 2.4 0 01-.02-.75z" /></svg>