<svg viewBox="0 0 24 24" focusable="false" xmlns="http://www.w3.org/2000/svg"><path d="M4.1 5.57c-.36.35-.58 1.02-.6 2.5h17c-.02-1.48-.24-2.15-.6-2.5-.38-.37-1.11-.59-2.77-.59H6.86c-1.65 0-2.38.22-2.76.59zM2 8.25v7.5c0 1.6.19 2.9 1.04 3.73.86.84 2.18 1.02 3.82 1.02h5.4c.42 0 .76-.33.76-.74 0-.4-.34-.74-.75-.74H6.86c-1.65 0-2.38-.22-2.76-.59-.38-.36-.6-1.07-.6-2.68v-6.2h17v3.09c0 .4.34.74.75.74s.75-.33.75-.74V8.25c0-1.6-.19-2.9-1.05-3.73-.85-.84-2.18-1.02-3.82-1.02H6.86c-1.64 0-2.96.18-3.82 1.02C2.2 5.35 2 6.65 2 8.25zm3.7 7.86c0-.41.34-.74.75-.74H8.3c.42 0 .75.33.75.74 0 .4-.33.74-.75.74H6.45a.75.75 0 01-.75-.74zm4.91-.74a.75.75 0 00-.75.74c0 .4.34.74.75.74h2.36c.42 0 .75-.33.75-.74s-.33-.74-.75-.74h-2.36zm8.64-.57a.6.6 0 10-1.2 0v.79c-.27.06-.52.17-.75.31l-.56-.56a.6.6 0 00-.85.85l.56.56c-.14.23-.25.48-.31.75h-.79a.6.6 0 000 1.2h.8c.05.27.16.52.3.75l-.56.56a.6.6 0 10.85.85l.56-.56c.23.14.48.24.75.3v.8a.6.6 0 101.2 0v-.8c.27-.06.52-.16.75-.3l.56.56a.6.6 0 00.85-.85l-.56-.56c.14-.23.25-.48.31-.75h.79a.6.6 0 100-1.2h-.79a2.56 2.56 0 00-.31-.75l.56-.56a.6.6 0 10-.85-.85l-.56.56a2.56 2.56 0 00-.75-.31v-.8zm.78 3.28a1.38 1.38 0 00-1.36-1.36h-.01-.01-.02a1.38 1.38 0 101.4 1.36z" /></svg>