<svg viewBox="0 0 24 24" focusable="false" xmlns="http://www.w3.org/2000/svg"><path d="M4.1 5.57c-.36.35-.58 1.02-.6 2.5h17c-.02-1.48-.24-2.15-.6-2.5-.38-.37-1.11-.59-2.77-.59H6.86c-1.65 0-2.38.22-2.76.59zM2 8.25v7.5c0 1.6.19 2.9 1.04 3.73.86.84 2.18 1.02 3.82 1.02h6.33c.41 0 .75-.33.75-.74 0-.4-.34-.74-.75-.74H6.86c-1.65 0-2.38-.22-2.76-.59-.38-.36-.6-1.07-.6-2.68v-6.2h17v2.7c0 .4.34.74.75.74s.75-.33.75-.74v-4c0-1.6-.19-2.9-1.05-3.73-.85-.84-2.18-1.02-3.82-1.02H6.86c-1.64 0-2.96.18-3.82 1.02C2.2 5.35 2 6.65 2 8.25zm3.7 7.86c0-.41.34-.74.75-.74H8.3c.42 0 .75.33.75.74 0 .4-.33.74-.75.74H6.45a.75.75 0 01-.75-.74zm4.91-.74a.75.75 0 00-.75.74c0 .4.34.74.75.74h2.62c.42 0 .75-.33.75-.74s-.33-.74-.75-.74h-2.62zm11.27-1.12c.34 0 .62.28.62.63v2a.62.62 0 01-.7.62l-.1-.02h-.01l-1.88-.23a.63.63 0 11.16-1.24l.62.08a2.13 2.13 0 10.32 2.7.63.63 0 111.04.68 3.38 3.38 0 11-.7-4.47v-.13c0-.34.28-.62.63-.62z" /></svg>