<svg viewBox="0 0 24 24" focusable="false" xmlns="http://www.w3.org/2000/svg"><path clipRule="evenodd" d="M4.1 5.57c-.38.36-.6 1.07-.6 2.68v.35h17v-.35c0-1.6-.22-2.32-.6-2.68-.38-.37-1.11-.59-2.77-.59H6.86c-1.65 0-2.38.22-2.76.59zM2 8.25v7.5c0 1.6.19 2.9 1.04 3.73.86.84 2.18 1.02 3.82 1.02h5.38c.41 0 .75-.33.75-.74s-.34-.74-.75-.74H6.86c-1.65 0-2.38-.22-2.76-.59-.38-.37-.6-1.07-.6-2.68v-5.67h17v2.17c0 .4.34.74.75.74s.75-.33.75-.74V8.24c0-1.6-.19-2.89-1.05-3.72-.85-.84-2.18-1.02-3.82-1.02H6.86c-1.64 0-2.96.18-3.82 1.02C2.2 5.35 2 6.65 2 8.25zm3.7 8.39c0-.41.34-.74.75-.74H8.3c.42 0 .75.33.75.74 0 .4-.33.74-.75.74H6.45a.75.75 0 01-.75-.74zm4.91-.74a.75.75 0 00-.75.74c0 .4.34.74.75.74h1.64c.41 0 .75-.33.75-.74s-.34-.74-.75-.74h-1.64zm8.8-3.68a.6.6 0 00-1.09-.42l-3.92 5.83a.6.6 0 00.5.93h2.67l-.46 3.5a.6.6 0 001.1.4l4.2-6.39a.6.6 0 00-.51-.93h-2.94l.45-2.92zm-1.15 5.14h-2.23l1.78-2.66-.14.95a.6.6 0 00.59.7h2.53l-2.14 3.25.2-1.56a.6.6 0 00-.59-.68z" fill-rule="evenodd" /></svg>
