<svg viewBox="0 0 24 24" focusable="false" xmlns="http://www.w3.org/2000/svg"><path clipRule="evenodd" d="M4.1 5.07c-.38.36-.6 1.07-.6 2.68v.31h17v-.31c0-1.6-.22-2.31-.6-2.68-.38-.37-1.11-.59-2.77-.59H6.86c-1.65 0-2.38.22-2.76.59zM2 7.75v7.5c0 1.6.19 2.9 1.04 3.73.86.84 2.18 1.02 3.82 1.02h6.33c.41 0 .75-.33.75-.74 0-.4-.34-.74-.75-.74H6.86c-1.65 0-2.38-.22-2.76-.59-.38-.36-.6-1.07-.6-2.68v-5.7h17v1.2c0 .4.34.73.75.73s.75-.33.75-.74V7.75c0-1.6-.19-2.9-1.05-3.73C20.1 3.18 18.77 3 17.13 3H6.86c-1.64 0-2.96.18-3.82 1.02C2.2 4.85 2 6.15 2 7.75zm3.7 8.36c0-.41.34-.74.75-.74H8.3c.42 0 .75.33.75.74 0 .4-.33.74-.75.74H6.45a.75.75 0 01-.75-.74zm4.91-.74a.75.75 0 00-.75.74c0 .4.34.74.75.74h3.02c.42 0 .75-.33.75-.74s-.33-.74-.75-.74h-3.02zm6.86 5.28c.36.24.77.35 1.22.35.33 0 .61-.05.83-.16.22-.11.4-.25.53-.4.13-.16.23-.31.3-.45h.09v.24a.67.67 0 001.34 0v-5.57h.29a.43.43 0 000-.86h-.29a.69.69 0 00-1.37 0h-1.1a.43.43 0 100 .86h1.1v1.4h-.05c-.08-.15-.17-.3-.3-.45-.13-.17-.3-.3-.52-.42-.22-.11-.5-.17-.84-.17a2.22 2.22 0 00-2.08 1.35c-.21.45-.32.99-.32 1.64 0 .63.1 1.17.31 1.62.21.45.5.79.86 1.02zm2.34-1c-.2.15-.45.23-.74.23-.3 0-.55-.08-.76-.24-.2-.17-.35-.39-.46-.67-.1-.29-.16-.6-.16-.97 0-.36.06-.68.16-.96.1-.28.26-.5.46-.66.2-.16.46-.24.76-.24s.55.08.75.23c.2.16.36.37.46.65.1.28.16.6.16.98 0 .37-.05.7-.16.98-.1.29-.26.5-.47.67z" fill-rule="evenodd" /></svg>
