<svg viewBox="0 0 24 24" focusable="false" xmlns="http://www.w3.org/2000/svg"><path clip-rule="evenodd" d="M4.1 5.57c-.36.35-.58 1.02-.6 2.5h17c-.02-1.48-.24-2.15-.6-2.5-.38-.37-1.11-.59-2.77-.59H6.86c-1.65 0-2.38.22-2.76.59zM2 8.25v7.5c0 1.6.19 2.9 1.04 3.73.86.84 2.18 1.02 3.82 1.02h6.33c.41 0 .75-.33.75-.74 0-.4-.34-.74-.75-.74H6.86c-1.65 0-2.38-.22-2.76-.59-.38-.36-.6-1.07-.6-2.68v-6.2h17V12c0 .4.34.74.75.74s.75-.33.75-.74V8.25c0-1.6-.19-2.9-1.05-3.73-.85-.84-2.18-1.02-3.82-1.02H6.86c-1.64 0-2.96.18-3.82 1.02C2.2 5.35 2 6.65 2 8.25zm4 8.34c0-.4.34-.74.75-.74H8.6c.41 0 .75.33.75.74 0 .4-.34.74-.75.74H6.75a.75.75 0 01-.75-.74zm5.05-.74a.75.75 0 00-.75.74c0 .4.34.74.75.74h1.8c.4 0 .74-.33.74-.74 0-.4-.33-.74-.75-.74h-1.79zm8.6-2.32a.75.75 0 00-1.06 1.06l1.25 1.26h-4a.75.75 0 000 1.5h3.97l-1.21 1.17a.75.75 0 001.04 1.08l2.54-2.47a.75.75 0 000-1.06l-2.53-2.54z" fill-rule="evenodd" /></svg>