<svg viewBox="0 0 24 24" focusable="false" xmlns="http://www.w3.org/2000/svg"><path d="M9.53 19.77v.02h.02l.01-.01v-.01-.01h-.01-.02zm-1.6 0a1.62 1.62 0 113.23 0 1.62 1.62 0 01-3.23 0zM18.53 19.77v.02h.02l.01-.01v-.01-.01h-.01-.02zm-1.6 0a1.62 1.62 0 113.23 0 1.62 1.62 0 01-3.23 0zM2.2 3.41c0-.44.36-.8.8-.8h3.27a.8.8 0 01.79.64l.69 3.45H21a.8.8 0 01.79.95l-1.31 6.87a2.44 2.44 0 01-2.43 1.96H10.1a2.44 2.44 0 01-2.43-1.96L6.31 7.7a.8.8 0 010-.07l-.7-3.41H3a.8.8 0 01-.8-.8zm5.87 4.9l1.18 5.9a.84.84 0 00.84.67H18.07a.84.84 0 00.84-.67l1.12-5.9H8.07z" /></svg>