<svg viewBox="0 0 24 24" focusable="false" xmlns="http://www.w3.org/2000/svg"><g clipPath="url(#clip0_5093_30678)"><path d="M12.24 8.43c.44 0 .8.36.8.8v5a.8.8 0 11-1.6 0v-5c0-.44.36-.8.8-.8zM11.44 17.23c0-.44.36-.8.8-.8h.01a.8.8 0 010 1.6.8.8 0 01-.8-.8z" /><path d="M12.24 2.33a2.8 2.8 0 00-2.4 1.35l.7.41-.7-.4-8.46 14.13-.01.01a2.8 2.8 0 002.4 4.2H20.72a2.8 2.8 0 002.4-4.2h-.01l-.84-1.41a.8.8 0 00-1.38.82l.84 1.4a1.2 1.2 0 01-1.02 1.8H3.78a1.2 1.2 0 01-1.03-1.8L11.22 4.5a1.2 1.2 0 012.05 0l5.77 9.64a.8.8 0 101.38-.82l-5.78-9.65a2.8 2.8 0 00-2.4-1.35z" /></g><defs><clipPath id="clip0_5093_30678"><path d="M0 0h24v24H0z" transform="translate(.24 .23)" /></clipPath></defs></svg>