<svg viewBox="0 0 24 24" focusable="false" xmlns="http://www.w3.org/2000/svg"><path clipRule="evenodd" d="M21.57 2.49a.75.75 0 10-1.14-.98l-8.08 9.37-3.8-3.98a.75.75 0 10-1.1 1.03l4.38 4.59a.75.75 0 001.11-.03l8.63-10zM1.25 14.03c0 2.38.47 4.25 1.72 5.5s3.12 1.72 5.5 1.72h5.56c2.38 0 4.25-.47 5.5-1.72s1.72-3.12 1.72-5.5V9.48a.75.75 0 00-1.5 0v4.55c0 2.23-.45 3.6-1.28 4.44-.83.83-2.2 1.28-4.44 1.28H8.48c-2.24 0-3.62-.45-4.45-1.28-.83-.83-1.28-2.2-1.28-4.44V8.48c0-2.24.45-3.62 1.28-4.45.83-.83 2.2-1.28 4.45-1.28h3.77a.75.75 0 000-1.5H8.48c-2.4 0-4.26.47-5.5 1.72-1.26 1.25-1.73 3.12-1.73 5.5v5.56z" fill-rule="evenodd" /></svg>
