<svg viewBox="0 0 24 24" focusable="false" xmlns="http://www.w3.org/2000/svg"><path d="M12 3.8a8.2 8.2 0 104.23 15.23.87.87 0 011.05.09c.36.34.33.93-.09 1.2a9.8 9.8 0 113.14-3.14c-.26.4-.82.44-1.17.11a.87.87 0 01-.12-1.08A8.2 8.2 0 0012 3.8z" /><path clip-rule="evenodd" d="M12.68 7.65a.65.65 0 10-1.3 0v.93h-.34a2.04 2.04 0 100 4.07h.33v1.46H9.65a.65.65 0 100 1.3h1.72v.94a.65.65 0 001.3 0v-.93h.34a2.04 2.04 0 100-4.07h-.33V9.89H14a.65.65 0 100-1.3h-1.32v-.94zM11.04 9.9h.33v1.46h-.33a.73.73 0 010-1.46zm1.64 4.22v-1.46H13a.73.73 0 010 1.46h-.33z" fill-rule="evenodd" /></svg>