<svg viewBox="0 0 24 24" focusable="false" xmlns="http://www.w3.org/2000/svg"><path d="M12 3.8a8.2 8.2 0 104.23 15.23.87.87 0 011.05.09c.36.34.33.93-.09 1.2a9.8 9.8 0 113.14-3.14c-.26.4-.82.44-1.17.11a.87.87 0 01-.12-1.08A8.2 8.2 0 0012 3.8z" /><path d="M11.34 16a2.24 2.24 0 01-2.12-1.4c-.21-.45-.32-1-.32-1.66 0-.66.1-1.21.32-1.66.22-.46.52-.8.89-1.03a2.27 2.27 0 012.09-.18c.22.12.4.26.53.42.13.17.23.32.3.46h.06V8.7a.7.7 0 011.4 0v6.51a.69.69 0 11-1.37 0v-.25h-.08c-.08.15-.18.3-.32.46a1.72 1.72 0 01-1.38.58zm.39-1.15c.3 0 .55-.07.76-.23.2-.17.36-.4.47-.68.1-.29.16-.62.16-1 0-.39-.05-.72-.16-1-.1-.29-.26-.5-.47-.66-.2-.16-.46-.24-.76-.24-.31 0-.57.08-.78.24-.2.17-.36.39-.47.68-.1.28-.16.6-.16.97 0 .38.06.7.16 1 .1.28.27.51.47.68.22.16.47.24.78.24zm.24-5.32a.44.44 0 010-.88h2.81a.44.44 0 110 .88h-2.8z" /></svg>