<svg viewBox="0 0 24 24" focusable="false" xmlns="http://www.w3.org/2000/svg"><path clip-rule="evenodd" d="M12 3.8A7.2 7.2 0 004.8 11v.98h1.87a2.58 2.58 0 012.57 2.58v.66a2.58 2.58 0 01-2.28 2.56 2.96 2.96 0 002.88 2.27h2.23c.23-.4.66-.68 1.16-.68h1.38a1.33 1.33 0 010 2.66h-1.38c-.5 0-.93-.27-1.16-.68H9.84a4.26 4.26 0 01-4.2-3.55 2.58 2.58 0 01-2.44-2.58V11a8.8 8.8 0 0117.4-1.9c.1.48-.28.9-.77.9-.4 0-.74-.3-.83-.7a7.2 7.2 0 00-7-5.5zm6.94 8.2c1.03 0 1.86.83 1.86 1.86v1.37a2.58 2.58 0 01-2.58 2.57h-.89a2.58 2.58 0 01-2.57-2.58v-.66a2.58 2.58 0 012.57-2.58H18V12h.94zm.26 1.58h-1.87a.98.98 0 00-.97.98v.66a.98.98 0 00.97.98h.9a.98.98 0 00.97-.98V13.58zm-14.4.75v.9a.98.98 0 00.98.97h.89a.98.98 0 00.97-.98v-.66a.98.98 0 00-.97-.98H4.8v.75z" fill-rule="evenodd" /></svg>