<svg viewBox="0 0 24 24" focusable="false" xmlns="http://www.w3.org/2000/svg"><path clip-rule="evenodd" d="M4.46 3.33c.44 0 .8.36.8.8v14.4c0 .67.54 1.2 1.2 1.2h7.4a.8.8 0 010 1.6h-7.4a2.8 2.8 0 01-2.8-2.8V4.13c0-.44.36-.8.8-.8zM7.88 14.5a1.5 1.5 0 103 0 1.5 1.5 0 00-3 0zm2.77-5.25a1.12 1.12 0 102.25 0 1.12 1.12 0 00-2.25 0zm3.7 5.34a2.25 2.25 0 104.5 0 2.25 2.25 0 00-4.5 0zm3.47-7.36a1.31 1.31 0 102.62 0 1.31 1.31 0 00-2.62 0zm.11 12.51a.8.8 0 100 1.6h3.4a.8.8 0 000-1.6h-3.4z" fill-rule="evenodd" /></svg>