<svg viewBox="0 0 24 24" focusable="false" xmlns="http://www.w3.org/2000/svg"><path clip-rule="evenodd" d="M9 3.75A4.25 4.25 0 004.75 8v8c0 2.35 1.9 4.25 4.25 4.25h2a.75.75 0 010 1.5H9A5.75 5.75 0 013.25 16V8A5.75 5.75 0 019 2.25h3.86c.8 0 1.56.35 2.08.95l-.55.48.55-.48 5.38 6.23c.28.32.43.72.43 1.14v1.03a.75.75 0 01-1.48.15H17A4.75 4.75 0 0112.25 7V3.75H9zm4.8.43l5.25 6.07H17A3.25 3.25 0 0113.75 7V4.12l.06.06zm6.9 15.62c.5-.7.8-1.6.8-2.5 0-2.4-1.8-4.3-4.2-4.3-2.4 0-4.3 2-4.3 4.3a4.25 4.25 0 006.7 3.4l1.5 1.6c.3.3.7.3 1 0 .3-.3.3-.7 0-1l-1.5-1.5zm-3.4-5.4a2.9 2.9 0 00-2.9 2.9c0 1.5 1.3 2.8 2.9 2.8.7 0 1.4-.3 2-.7v-.1h.1a2.9 2.9 0 00-2.1-4.9z" fill-rule="evenodd" /></svg>