<svg viewBox="0 0 24 24" focusable="false" xmlns="http://www.w3.org/2000/svg"><path clipRule="evenodd" d="M8 20.5h8a3.5 3.5 0 003.5-3.5v-5.25H17A4.75 4.75 0 0112.25 7V3.5H8A3.5 3.5 0 004.5 7v10A3.5 3.5 0 008 20.5zM13.75 4l5.48 6.25H17A3.25 3.25 0 0113.75 7V4zM16 22H8a5 5 0 01-5-5V7a5 5 0 015-5h5.1a2 2 0 011.5.68l5.9 6.75a2 2 0 01.5 1.32V17a5 5 0 01-5 5zM8 10.25a.75.75 0 000 1.5h2a.75.75 0 000-1.5H8zm0 3a.75.75 0 000 1.5h7a.75.75 0 000-1.5H8zM7.25 17c0-.41.34-.75.75-.75h7a.75.75 0 010 1.5H8a.75.75 0 01-.75-.75z" fill-rule="evenodd" /></svg>
