<svg viewBox="0 0 24 24" focusable="false" xmlns="http://www.w3.org/2000/svg"><path clipRule="evenodd" d="M14.43 3.11a.75.75 0 00-1.36-.53l-3 4.5a.75.75 0 101.24.84l1.12-1.68-.48 3.15a.75.75 0 00.74.86h5.15l-1.79 2.85a.75.75 0 001.28.8l2.5-4a.75.75 0 00-.64-1.15h-5.63l.87-5.64zM8.35 9.66L2.22 3.53a.75.75 0 011.06-1.06l17.94 17.94a.75.75 0 11-1.06 1.06l-4.64-4.64-3.22 4.6a.75.75 0 01-1.35-.53l.88-6.65H6.7a.75.75 0 01-.62-1.17l2.28-3.42zm6.1 6.1L13.3 14.6l-.46 3.44 1.6-2.3zm-3.01-3.01l-2.01-2-1.34 2h3.35z" fill-rule="evenodd" /></svg>
