<svg viewBox="0 0 24 24" focusable="false" xmlns="http://www.w3.org/2000/svg"><path d="M7.64 11.2h-3.8A8.2 8.2 0 0110.18 4a14.57 14.57 0 00-2.54 7.2zm1.6 0A12.97 12.97 0 0112 4.23c1.58 2 2.54 4.43 2.76 6.97H9.24zM12 19.77c1.58-2 2.54-4.43 2.76-6.97H9.24A12.97 12.97 0 0012 19.77zM3.84 12.8h3.8c.2 2.59 1.07 5.07 2.54 7.2a8.2 8.2 0 01-6.34-7.2zm12.52 0a14.57 14.57 0 01-2.54 7.2c.96-.22 1.87-.61 2.67-1.14a.87.87 0 011.07.08c.36.33.34.9-.06 1.18a9.8 9.8 0 112.66-2.67.75.75 0 01-1.16.1.87.87 0 01-.1-1.1 8.15 8.15 0 001.26-3.65h-3.8zm0-1.6h3.8A8.2 8.2 0 0013.82 4a14.57 14.57 0 012.54 7.2z" /></svg>