<svg viewBox="0 0 24 24" focusable="false" xmlns="http://www.w3.org/2000/svg"><path d="M4.8 5.78c0-.54.44-.98.98-.98h12.44c.54 0 .98.44.98.98v6.96l-3.08-3.08a.8.8 0 00-1.13 0l-9.5 9.5a.98.98 0 01-.69-.94V5.78zm16 0v8.42a.8.8 0 01-.8.8h-.8l-3.64-3.65L7.7 19.2h10.51c.54 0 .98-.44.98-.98v-.42a.8.8 0 111.6 0v.42a2.58 2.58 0 01-2.58 2.58H5.78a2.58 2.58 0 01-2.58-2.58V5.78A2.58 2.58 0 015.78 3.2h12.44a2.58 2.58 0 012.58 2.58zM8.36 8.88a.53.53 0 111.06 0 .53.53 0 01-1.06 0zm.53-2.12a2.13 2.13 0 100 4.26 2.13 2.13 0 000-4.26z" /></svg>