<svg viewBox="0 0 24 24" focusable="false" xmlns="http://www.w3.org/2000/svg"><path d="M3 16.8v.4c0 1.68 0 2.52.33 3.16a3 3 0 001.3 1.31c.65.33 1.49.33 3.17.33h8.4c.7 0 1.24 0 1.7-.02.69-.04.87-.8.38-1.29-.2-.2-.49-.3-.78-.3l-1.3.01H7.8c-.87 0-1.42 0-1.84-.04-.4-.03-.54-.08-.6-.11a1.4 1.4 0 01-.6-.61c-.04-.06-.1-.2-.12-.6-.04-.42-.04-.97-.04-1.84v-.4a.8.8 0 000-1.6v-2.4a.8.8 0 000-1.6V8.8a.8.8 0 000-1.6v-.4c0-.87 0-1.42.04-1.84.03-.4.08-.54.11-.6.14-.26.35-.47.61-.6.06-.04.2-.1.6-.12.42-.04.97-.04 1.84-.04h8.4c.87 0 1.42 0 1.84.04.4.03.54.08.6.11.26.14.47.35.6.61.04.06.1.2.12.6.04.42.04.97.04 1.84V18.5c-.02.3.09.57.3.78.48.5 1.24.3 1.28-.39.02-.45.02-1 .02-1.69V6.8c0-1.68 0-2.52-.33-3.16a3 3 0 00-1.3-1.31C18.71 2 17.87 2 16.2 2H7.8c-1.68 0-2.52 0-3.16.33a3 3 0 00-1.31 1.3C3 4.29 3 5.13 3 6.8v.4a.8.8 0 000 1.6v2.4a.8.8 0 000 1.6v2.4a.8.8 0 000 1.6z" /><path d="M8.8 7.2a.8.8 0 100 1.6h7.4a.8.8 0 000-1.6H8.8zM8 12c0-.44.36-.8.8-.8h7.4a.8.8 0 110 1.6H8.8A.8.8 0 018 12zM8.8 15.3a.8.8 0 000 1.6h7.4a.8.8 0 100-1.6H8.8z" /></svg>