<svg viewBox="0 0 24 24" focusable="false" xmlns="http://www.w3.org/2000/svg"><path clip-rule="evenodd" d="M9.48 4.88A3.7 3.7 0 0115.8 7.5v2.8H8.4V7.5c0-.98.39-1.92 1.08-2.62zM17.4 7.5v2.8h1a2.6 2.6 0 012.6 2.6v2.3a.8.8 0 01-1.6 0v-2.3a1 1 0 00-1-1H5.8a1 1 0 00-1 1v6.3a1 1 0 001 1h12.6a1 1 0 001-1v-.4a.8.8 0 111.6 0v.4a2.6 2.6 0 01-2.6 2.6H5.8a2.6 2.6 0 01-2.6-2.6v-6.3a2.6 2.6 0 012.6-2.6h1V7.5a5.3 5.3 0 1110.6 0zm-4.68 7.02a.8.8 0 10-1.6 0v3.06a.8.8 0 001.6 0v-3.06z" fill-rule="evenodd" /></svg>