<svg viewBox="0 0 24 24" focusable="false" xmlns="http://www.w3.org/2000/svg"><path clip-rule="evenodd" d="M4.33 7.46l-2.9-2.9a.8.8 0 111.14-1.13l17 17a.8.8 0 11-1.14 1.14l-2.69-2.7a26.11 26.11 0 01-3.24 2.73l-.07.05-.01.01h-.01a.8.8 0 01-.89 0l.44-.66-.44.67v-.01l-.03-.01a11.1 11.1 0 01-.31-.22l-.87-.66a25.69 25.69 0 01-2.6-2.39C5.82 16.4 3.8 13.55 3.8 10.36c0-1 .18-1.98.53-2.9zm10.32 10.32a71.17 71.17 0 01-2.69 2.24 22.54 22.54 0 01-3.1-2.74c-1.8-1.91-3.46-4.37-3.46-6.92 0-.55.07-1.1.2-1.62l9.05 9.04z" fill-rule="evenodd" /><path d="M15.22 10.36c0 1.02-.47 1.93-1.2 2.53l-1.14-1.15a1.65 1.65 0 10-2.3-2.29L9.44 8.31a3.25 3.25 0 015.78 2.05z" /><path d="M5.96 4.83L7.1 5.96a6.57 6.57 0 0111.44 4.4c0 1.51-.59 3-1.44 4.35-.34.54.03 1.29.66 1.29.26 0 .5-.12.63-.34a9.94 9.94 0 001.75-5.3A8.16 8.16 0 005.96 4.83z" /></svg>