<svg viewBox="0 0 24 24" focusable="false" xmlns="http://www.w3.org/2000/svg"><path d="M11.96 12.82a2.45 2.45 0 100-4.91 2.45 2.45 0 000 4.9z" stroke-linecap="round" stroke-linejoin="round" stroke-width="1.6" stroke="#667085" /><path clip-rule="evenodd" d="M7.32 5.72a6.56 6.56 0 0111.2 4.64c0 1.51-.58 3-1.43 4.35-.34.54.03 1.29.66 1.29.26 0 .5-.12.63-.34a9.94 9.94 0 001.75-5.3 8.16 8.16 0 10-16.33 0c0 3.19 2.03 6.04 3.9 8.02a25.7 25.7 0 003.8 3.27l.01.01.45-.66-.44.67a.8.8 0 00.89 0l-.45-.67.45.67v-.01l.02-.01a8.63 8.63 0 00.32-.22l.86-.66c.71-.57 1.66-1.38 2.62-2.39.2-.2.18-.54-.03-.73l-.17-.16a.78.78 0 00-1.06 0 74.78 74.78 0 01-3 2.53 22.4 22.4 0 01-3.1-2.74C7.04 15.37 5.4 12.9 5.4 10.36c0-1.74.7-3.4 1.92-4.64z" fill-rule="evenodd" /></svg>