<svg viewBox="0 0 24 24" focusable="false" xmlns="http://www.w3.org/2000/svg"><path clip-rule="evenodd" d="M8 2.2c.44 0 .8.36.8.8v3A2.8 2.8 0 016 8.8H3a.8.8 0 110-1.6h3A1.2 1.2 0 007.2 6V3c0-.44.36-.8.8-.8zm8 0c.44 0 .8.36.8.8v3A1.2 1.2 0 0018 7.2h3a.8.8 0 010 1.6h-3A2.8 2.8 0 0115.2 6V3c0-.44.36-.8.8-.8zM2.2 16c0-.44.36-.8.8-.8h3A2.8 2.8 0 018.8 18v3a.8.8 0 01-1.6 0v-3A1.2 1.2 0 006 16.8H3a.8.8 0 01-.8-.8zm15.8.8a1.2 1.2 0 00-1.2 1.2v3a.8.8 0 01-1.6 0v-3a2.8 2.8 0 012.8-2.8h3a.8.8 0 110 1.6h-3z" fill-rule="evenodd" /></svg>