<svg viewBox="0 0 24 24" focusable="false" xmlns="http://www.w3.org/2000/svg"><path clip-rule="evenodd" d="M9.23 2c-2.4 0-4.26.47-5.5 1.72C2.46 4.97 2 6.84 2 9.22v5.56c0 2.38.47 4.25 1.72 5.5S6.84 22 9.22 22h5.56c1.85 0 3.38-.28 4.56-.99a5.17 5.17 0 002.34-3.32.75.75 0 10-1.45-.38 3.68 3.68 0 01-1.67 2.41c-.84.51-2.06.78-3.78.78H9.23c-2.24 0-3.62-.45-4.45-1.28-.83-.83-1.28-2.2-1.28-4.44V9.23c0-2.24.45-3.62 1.28-4.45.83-.83 2.2-1.28 4.45-1.28h5.55c2.23 0 3.6.45 4.44 1.28.83.83 1.28 2.2 1.28 4.45V13a.75.75 0 001.5 0V9.23c0-2.4-.47-4.26-1.72-5.5C19.03 2.46 17.16 2 14.78 2H9.23zm-.93 9.25a.75.75 0 000 1.5h7.4a.75.75 0 000-1.5H8.3z" fill-rule="evenodd" /></svg>