<svg viewBox="0 0 24 24" focusable="false" xmlns="http://www.w3.org/2000/svg"><path d="M6.77 2.76c.15-.19.33-.26.48-.26h9c.15 0 .33.07.48.26.16.2.27.48.27.8v8.94a.75.75 0 001.5 0V3.57c0-.64-.2-1.28-.61-1.76-.4-.5-1-.81-1.64-.81h-9c-.65 0-1.23.31-1.64.8-.4.5-.61 1.13-.61 1.77v16.36c0 .64.2 1.28.61 1.76.4.5 1 .81 1.64.81h3.25a.75.75 0 000-1.5H7.25c-.15 0-.33-.07-.48-.26-.16-.2-.27-.48-.27-.8V3.56c0-.33.1-.62.27-.81zm8.1 19.73c.36.24.77.35 1.22.35.34 0 .61-.05.83-.16.22-.11.4-.25.53-.4.13-.16.23-.31.3-.45h.09v.24a.67.67 0 101.34 0V16.5h.29a.43.43 0 100-.87h-.29a.69.69 0 00-1.37 0h-1.1a.43.43 0 000 .87h1.1v1.4h-.05c-.08-.15-.17-.3-.3-.45-.13-.17-.3-.3-.52-.42-.22-.11-.5-.17-.84-.17a2.22 2.22 0 00-2.08 1.35c-.21.45-.32.99-.32 1.64 0 .63.1 1.17.31 1.62.21.45.5.79.86 1.02zm2.35-1c-.2.15-.46.23-.75.23-.3 0-.55-.08-.76-.24-.2-.17-.35-.39-.46-.67-.1-.29-.16-.6-.16-.97 0-.36.06-.68.16-.96.1-.28.26-.5.46-.66.2-.16.46-.24.76-.24s.55.08.75.23c.2.16.36.37.46.65.1.28.16.6.16.98 0 .37-.05.7-.16.98-.1.29-.26.5-.46.67z" /></svg>