<svg viewBox="0 0 24 24" focusable="false" xmlns="http://www.w3.org/2000/svg"><path d="M7.25 2.5c-.15 0-.33.07-.48.26-.16.2-.27.48-.27.8v16.37c0 .33.1.62.27.81.15.19.33.26.48.26H9.5a.75.75 0 010 1.5H7.25c-.65 0-1.23-.31-1.64-.8A2.78 2.78 0 015 19.92V3.57c0-.64.2-1.28.61-1.76.4-.5 1-.81 1.64-.81h9c.65 0 1.23.31 1.64.8.4.5.61 1.13.61 1.77v9.93a.75.75 0 01-1.5 0V3.57c0-.33-.1-.62-.27-.81-.15-.19-.33-.26-.48-.26h-9zM17.21 17c0-.35.28-.63.62-.63h1.25c1.52 0 2.71 1.2 2.71 2.71 0 .57-.17 1.1-.46 1.53a.63.63 0 01-1.04-.7c.16-.23.25-.51.25-.83 0-.82-.63-1.45-1.46-1.45h-1.25a.62.62 0 01-.62-.63zm1.02 4.8l1.38 1.71a.62.62 0 10.98-.78l-4.63-5.79a.63.63 0 00-.44-.54l-2.15-2.7a.62.62 0 10-.98.79l1.51 1.9a2.69 2.69 0 00-2.53 2.7c0 1.5 1.2 2.7 2.71 2.7h1.25a.63.63 0 000-1.25h-1.25c-.82 0-1.46-.64-1.46-1.46a1.44 1.44 0 011.46-1.45h.82l.67.83h-.65a.62.62 0 100 1.25h1.65l.82 1.02a.62.62 0 00.44 1.06h.4z" /></svg>