<svg viewBox="0 0 24 24" focusable="false" xmlns="http://www.w3.org/2000/svg"><path d="M19.8 21.42a.83.83 0 01-.57-.23l-3.81-3.82h-11a.81.81 0 01-.77-.56.79.79 0 01.33-.89s2.07-1.54 2.07-6.62c0-.4.04-.79.12-1.17L2.23 4.19a.81.81 0 011.14-1.14l17 17a.81.81 0 010 1.14.83.83 0 01-.57.23zM6.13 15.81h7.67L7.64 9.6c.07 2.17-.45 4.32-1.51 6.21zm5.57 5.65c-.42 0-.84-.11-1.2-.33-.37-.2-.68-.51-.89-.88a.8.8 0 111.39-.8.79.79 0 00.7.4.79.79 0 00.7-.4.8.8 0 011.4.8 2.35 2.35 0 01-2.1 1.17v.04zm5.37-7.29a.8.8 0 01-.77-.59c-.37-1.4-.54-2.86-.5-4.31A4.05 4.05 0 009.54 5.9a.8.8 0 01-1.11-.22.81.81 0 01.23-1.11c.7-.47 1.5-.77 2.34-.89v-.87a.8.8 0 011.6 0v.88a5.61 5.61 0 014.85 5.61c-.06 1.28.05 2.57.35 3.82a.79.79 0 01-.56 1 .76.76 0 01-.17.01v.04z" /></svg>