<svg viewBox="0 0 24 24" focusable="false" xmlns="http://www.w3.org/2000/svg"><path clip-rule="evenodd" d="M4.04 3.47a2.19 2.19 0 011.55-.72c.17 0 .34.04.49.1v.01c.15.07.28.17.37.3l2.33 3.28c.15.22.25.4.32.55v.02c.06.14.08.25.08.31 0 .09-.02.2-.1.32v.01l-.01.01c-.1.16-.23.34-.44.55l-.77.8c-.25.26-.37.58-.37.92 0 .15.02.28.05.41l.01.04.02.04.05.13v.01l.02.04.02.06.03.06a9 9 0 001.02 1.4v.01a35 35 0 001.48 1.62h.01c.55.54 1.09 1.05 1.63 1.51.55.46 1.02.8 1.43 1.01l.03.02.04.02.05.02.11.05h.02l.02.01c.19.07.36.09.51.09.38 0 .7-.15.94-.39l.76-.75c.22-.22.4-.35.54-.43h.02l.02-.02c.13-.08.22-.1.32-.1.08 0 .18.02.33.07.15.07.33.17.55.32l3.3 2.34h.01c.16.12.24.22.29.32.07.18.1.33.1.49a.75.75 0 001.5 0c0-.4-.09-.74-.21-1.06v-.01l-.01-.01c-.18-.4-.45-.7-.8-.95l-3.32-2.36a4.61 4.61 0 00-.85-.46 2.07 2.07 0 00-1.97.12c-.31.16-.6.4-.88.68l-.69.68-.06-.03c-.27-.15-.64-.4-1.13-.81a29.33 29.33 0 01-2.95-2.97 8 8 0 01-.84-1.17l.69-.71c.26-.27.5-.56.67-.86a2.1 2.1 0 00.11-1.99 4.17 4.17 0 00-.48-.85L7.68 2.31c-.26-.38-.6-.64-.96-.8a2.63 2.63 0 00-1.13-.26c-.97 0-1.85.41-2.6 1.15a5.35 5.35 0 00-1.33 1.93c-.27.7-.41 1.44-.41 2.21 0 1.16.27 2.35.78 3.56.5 1.2 1.2 2.38 2.04 3.56.86 1.17 1.81 2.3 2.87 3.36a29.5 29.5 0 003.37 2.88c1.18.86 2.38 1.55 3.59 2.06 1.22.52 2.41.79 3.55.79.8 0 1.54-.15 2.24-.44.51-.2.98-.5 1.41-.88a.75.75 0 10-.99-1.13c-.3.27-.64.48-1 .63-.5.2-1.06.32-1.66.32-.9 0-1.9-.21-2.97-.67-1.09-.47-2.19-1.1-3.29-1.9A28 28 0 018 15.96c-1-1.01-1.9-2.07-2.71-3.18-.8-1.1-1.42-2.2-1.88-3.26a7.68 7.68 0 01-.66-2.98c0-.6.1-1.15.3-1.65.2-.5.52-.98.97-1.4l.01-.01zM20.7 11H15a.9.9 0 01-.7-.3c-.2-.1-.3-.4-.3-.6V4.7L16.9 2h3.8c.3 0 .5.1.7.3.2.2.3.4.3.6v7.2c0 .2-.1.4-.3.6-.2.2-.5.3-.7.3zm-5.5-1.2h5.2V3.2h-3.1l-2.1 2v4.6zm3.38-1.19h-.76V5.68l-.91.28v-.62l1.59-.56h.08V8.6z" fill-rule="evenodd" /></svg>