<svg viewBox="0 0 24 24" focusable="false" xmlns="http://www.w3.org/2000/svg"><path clip-rule="evenodd" d="M13.84 4.05a4.36 4.36 0 00-3.18 0L5.35 6.14c-.26.1-.48.27-.62.48-.15.22-.23.46-.23.71v3.64c0 4.21 3.27 8.22 7.75 9.26a10.2 10.2 0 003.7-1.7.75.75 0 01.88 1.21 11.7 11.7 0 01-4.42 2 .75.75 0 01-.32 0C6.9 20.6 3 15.98 3 10.96V7.33c0-.56.17-1.1.5-1.57.32-.46.77-.8 1.3-1.02m0 0l5.3-2.08a5.86 5.86 0 014.3 0l5.3 2.08c.53.21.98.56 1.3 1.02l-.61.43.61-.43c.33.47.5 1.01.5 1.57v3.64a10.08 10.08 0 01-1.42 5.17.75.75 0 01-1.3-.75A8.58 8.58 0 0020 10.98V7.32c0-.25-.08-.5-.23-.7a1.36 1.36 0 00-.61-.49l-5.32-2.09" fill-rule="evenodd" /></svg>