<svg viewBox="0 0 24 24" focusable="false" xmlns="http://www.w3.org/2000/svg"><path clip-rule="evenodd" d="M10.59 3.8c1-.4 2.12-.4 3.12 0l-3.94.34.82-.33zm-5.94.82l.12-.05 5-.43-4.43 1.81A1.35 1.35 0 004.5 7.2v3.75a10.1 10.1 0 007.65 9.53 9.89 9.89 0 003.63-1.74.75.75 0 01.91 1.19 11.37 11.37 0 01-4.38 2.05.75.75 0 01-.33 0A11.6 11.6 0 013 10.95V7.2a2.85 2.85 0 011.65-2.58zm.12-.05l5.25-2.15a5.62 5.62 0 014.25 0l5.25 2.15A2.85 2.85 0 0121.3 7.2v3.75a10.68 10.68 0 01-1.4 5.28.75.75 0 11-1.3-.72 9.19 9.19 0 001.21-4.56V7.2a1.35 1.35 0 00-.85-1.25l-5.24-2.14m2.38 6.56a.75.75 0 10-1.06-1.06l-3.4 3.4-1.84-1.83a.75.75 0 10-1.06 1.06l2.36 2.36c.3.3.77.3 1.06 0l3.94-3.93z" fill-rule="evenodd" /></svg>