<svg viewBox="0 0 1024 1024" focusable="false" xmlns="http://www.w3.org/2000/svg"><path clip-rule="evenodd" d="M3 2.61a.8.8 0 100 1.6h2.62l.68 3.41.01.07 1.37 6.83a2.44 2.44 0 002.43 1.96h7.94a2.44 2.44 0 002.43-1.96l1.3-6.87A.8.8 0 0021 6.7H7.75l-.7-3.45a.8.8 0 00-.78-.64H3zm6.25 11.6l-1.18-5.9h11.96l-1.12 5.9a.84.84 0 01-.84.67H10.09a.84.84 0 01-.84-.67zm.28 5.56v.02h.02l.01-.01v-.01a.02.02 0 000-.01h-.01-.01a.02.02 0 00-.01 0zm-1.6 0a1.62 1.62 0 113.23 0 1.62 1.62 0 01-3.23 0zm10.6 0a.02.02 0 000 .01v.01h.02l.01-.01a.02.02 0 000-.01.02.02 0 000-.01h-.01a.02.02 0 00-.01 0h-.01zm-1.6 0a1.62 1.62 0 113.23 0 1.62 1.62 0 01-3.23 0z" fill-rule="evenodd" /></svg>