<svg viewBox="0 0 24 24" focusable="false" xmlns="http://www.w3.org/2000/svg"><path d="M15.43 16.7H9.58v-1.16l2.76-2.94c.38-.41.66-.77.84-1.08.18-.3.27-.6.27-.88 0-.38-.1-.67-.28-.89-.2-.21-.47-.32-.82-.32-.39 0-.69.13-.91.4-.22.26-.33.6-.33 1.03H9.4c0-.52.12-1 .37-1.42.25-.43.6-.77 1.05-1 .46-.25.97-.38 1.54-.38.88 0 1.57.21 2.05.64.49.42.73 1.01.73 1.78 0 .42-.1.85-.33 1.29-.21.43-.59.94-1.12 1.52l-1.94 2.04h3.67v1.37z" /><path clip-rule="evenodd" d="M18.85 3.97l.03 10.23a.8.8 0 101.6 0l-.03-10.23c0-.53-.2-1-.62-1.38-.42-.4-.9-.59-1.47-.59h-8.5L3.5 8.01v12.02c0 .53.22 1 .65 1.38.43.4.92.59 1.49.59h12.72c.57 0 1.06-.2 1.5-.59.42-.39.64-.85.64-1.38V18.8a.8.8 0 10-1.6 0v1.23l-.01.07c0 .01-.03.06-.11.13a.56.56 0 01-.42.17H5.64a.56.56 0 01-.42-.17.45.45 0 01-.1-.13.15.15 0 01-.02-.07V8.7l5.4-5.1h7.86c.15 0 .25.04.37.15.07.07.1.11.1.13.01.01.02.04.02.1z" fill-rule="evenodd" /></svg>