<svg viewBox="0 0 24 24" focusable="false" xmlns="http://www.w3.org/2000/svg"><path d="M13.7 16.7H12v-6.52l-2.02.63V9.43l3.53-1.26h.18v8.53z" /><path clip-rule="evenodd" d="M18.85 3.97l.03 11.23a.8.8 0 001.6 0l-.03-11.23c0-.53-.2-1-.62-1.38-.42-.4-.9-.59-1.47-.59h-8.5L3.5 8.01v12.02c0 .53.22 1 .65 1.38.43.4.92.59 1.49.59h12.72c.57 0 1.06-.2 1.5-.59.42-.39.64-.85.64-1.38V18.8a.8.8 0 00-1.6 0v1.23l-.01.07c0 .01-.03.06-.11.13a.56.56 0 01-.42.17H5.64a.56.56 0 01-.42-.17.45.45 0 01-.1-.13.15.15 0 01-.02-.07V8.7l5.4-5.1h7.86c.15 0 .25.04.37.15.07.07.1.11.1.13.01.01.02.04.02.1z" fill-rule="evenodd" /></svg>