<svg viewBox="0 0 24 24" focusable="false" xmlns="http://www.w3.org/2000/svg"><path clip-rule="evenodd" d="M4.32 3.72a6.56 6.56 0 0111.2 4.64c0 1.51-.58 3-1.43 4.35-.34.54.03 1.29.66 1.29.26 0 .5-.12.63-.34a9.94 9.94 0 001.75-5.3 8.16 8.16 0 00-16.33 0c0 3.19 2.03 6.04 3.9 8.02a25.7 25.7 0 003.8 3.27l.01.01.45-.66-.44.67a.8.8 0 00.89 0L8.96 19l.45.67v-.01l.02-.01a9.33 9.33 0 00.32-.22l.86-.66a25.7 25.7 0 002.62-2.39c.2-.2.18-.54-.03-.73l-.17-.16a.78.78 0 00-1.06 0 74.62 74.62 0 01-3 2.53 22.45 22.45 0 01-3.1-2.74C4.04 13.37 2.4 10.9 2.4 8.36c0-1.74.7-3.4 1.92-4.64z" fill-rule="evenodd" /></svg>