<svg viewBox="0 0 24 24" focusable="false" xmlns="http://www.w3.org/2000/svg"><path clip-rule="evenodd" d="M3.8 12c0-1.98.7-3.79 1.86-5.2l2.71 2.7a4.38 4.38 0 000 5l-2.7 2.7A8.17 8.17 0 013.8 12zm5.7-3.63l-2.7-2.7a8.17 8.17 0 0110.4 0l-.04.04-2.67 2.66a4.38 4.38 0 00-4.98 0zm8.84-1.58l-2.71 2.72a4.38 4.38 0 010 4.98l2.7 2.71a8.2 8.2 0 001.06-1.64.87.87 0 011-.48c.45.12.7.6.5 1.03a9.8 9.8 0 11.9-3.66c-.02.48-.5.8-.97.67a.87.87 0 01-.62-.87V12c0-1.98-.7-3.79-1.86-5.2zM12 16.4c.93 0 1.79-.29 2.5-.77l2.7 2.7a8.17 8.17 0 01-10.4 0l2.7-2.7c.72.48 1.57.77 2.5.77zM9.2 12a2.8 2.8 0 115.6 0 2.8 2.8 0 01-5.6 0z" fill-rule="evenodd" /></svg>