<svg viewBox="0 0 24 24" focusable="false" xmlns="http://www.w3.org/2000/svg"><g><path d="M5.6 21.6h12.6a2.61 2.61 0 002.6-2.6v-.2a.8.8 0 10-1.6 0v.2a1 1 0 01-1 1H5.6a1 1 0 01-1-1v-6.3a1 1 0 011-1h12.6a1 1 0 011 1v2.5a.8.8 0 001.6 0v-2.5a2.61 2.61 0 00-2.6-2.6h-10V7.3a3.7 3.7 0 017.28-.74.8.8 0 101.56-.32 5.3 5.3 0 00-2-3.21A5.3 5.3 0 006.6 7.3v2.8h-1A2.61 2.61 0 003 12.7V19a2.61 2.61 0 002.6 2.6z" /><path d="M11.41 18.12a.8.8 0 001.11-.74v-3.06a.8.8 0 10-1.6 0v3.06a.8.8 0 00.5.74z" /></g></svg>