<svg viewBox="0 0 24 24" focusable="false" xmlns="http://www.w3.org/2000/svg"><path clip-rule="evenodd" d="M11 3.8C7 3.8 3.8 7 3.8 11S7 18.2 11 18.2c1.9 0 3.7-.8 5-2 0 0 0-.1.1-.1l.1-.1c.3-.4.6-.7.9-1.2.2-.4.7-.5 1.1-.4.4.2.6.7.4 1.1-.2.4-.5.7-.8 1.1l3.8 3.8c.3.3.3.8 0 1.1-.3.3-.8.3-1.1 0l-3.8-3.8c-1.5 1.3-3.5 2-5.6 2-4.9 0-8.8-3.9-8.8-8.8s3.9-8.8 8.8-8.8 8.8 3.9 8.8 8.8c0 .3 0 .6-.1 1-.1.5-.6.8-1.1.6-.4-.1-.6-.5-.5-.9V11c0-4-3.2-7.2-7.2-7.2zm.9 4.8c0-.4-.4-.8-.8-.8s-.8.4-.8.8v1.7H8.6c-.4 0-.8.4-.8.8s.4.8.8.8h1.7v1.7c0 .4.4.8.8.8s.8-.4.8-.8v-1.7h1.7c.4 0 .8-.4.8-.8s-.4-.8-.8-.8h-1.7V8.6z" fill-rule="evenodd" /></svg>